<?xml version="1.0" encoding="UTF-8" standalone="no"?>
<!-- Created with Inkscape (http://www.inkscape.org/) -->

<svg
   version="1.1"
   id="svg1"
   width="1066.6667"
   height="1066.6667"
   viewBox="0 0 1066.6667 1066.6667"
   sodipodi:docname="epsforsvg.eps"
   xmlns:inkscape="http://www.inkscape.org/namespaces/inkscape"
   xmlns:sodipodi="http://sodipodi.sourceforge.net/DTD/sodipodi-0.dtd"
   xmlns="http://www.w3.org/2000/svg"
   xmlns:svg="http://www.w3.org/2000/svg">
  <defs
     id="defs1">
    <clipPath
       clipPathUnits="userSpaceOnUse"
       id="clipPath86">
      <path
         d="m 4198.77,2875.59 c -19.83,0 -35.9,32.81 -35.9,52.63 0,13.93 7.93,16 19.52,16 4.91,0 10.48,-0.37 16.38,-0.37 5.9,0 11.47,0.37 16.38,0.37 11.59,0 19.51,-2.07 19.51,-16 0,-19.82 -16.07,-52.63 -35.89,-52.63"
         transform="translate(0,2.5000001e-4)"
         id="path86" />
    </clipPath>
    <clipPath
       clipPathUnits="userSpaceOnUse"
       id="clipPath157">
      <path
         d="m 2300.36,2437.93 c -29,0 -52.5,34.39 -52.5,63.38 0,-2.83 0.23,-5.61 0.66,-8.32 3.99,-25.03 25.68,-44.17 51.83,-44.17 v 0 c 0.01,0 0.01,0 0.01,0 28.99,0 52.49,23.5 52.49,52.49 0,-28.99 -23.5,-63.38 -52.49,-63.38"
         transform="translate(0,2.5000001e-4)"
         id="path157" />
    </clipPath>
  </defs>
  <sodipodi:namedview
     id="namedview1"
     pagecolor="#ffffff"
     bordercolor="#000000"
     borderopacity="0.25"
     inkscape:showpageshadow="2"
     inkscape:pageopacity="0.0"
     inkscape:pagecheckerboard="0"
     inkscape:deskcolor="#d1d1d1">
    <inkscape:page
       x="0"
       y="0"
       inkscape:label="1"
       id="page1"
       width="1066.6667"
       height="1066.6667"
       margin="0"
       bleed="0" />
  </sodipodi:namedview>
  <g
     id="g1"
     inkscape:groupmode="layer"
     inkscape:label="1">
    <g
       id="group-R5">
      <path
         id="path2"
         d="M 0,0 H 8000 V 8000 H 0 Z"
         style="fill:#fcfcfd;fill-opacity:1;fill-rule:nonzero;stroke:none"
         transform="matrix(0.13333333,0,0,-0.13333333,0,1066.6667)" />
      <path
         id="path3"
         d="m 2809.23,295.23 c 0,-7.031 1.1,-13.011 3.28,-17.949 2.19,-4.941 5.18,-8.66 8.98,-11.152 3.8,-2.508 7.95,-3.77 12.44,-3.77 4.56,0 8.72,1.192 12.49,3.571 3.77,2.371 6.77,6.019 9.02,10.91 2.25,4.91 3.37,11.051 3.37,18.39 0,6.899 -1.12,12.84 -3.37,17.821 -2.25,4.961 -5.28,8.762 -9.12,11.398 -3.83,2.621 -8.02,3.922 -12.58,3.922 -4.74,0 -8.99,-1.34 -12.73,-4.031 -3.73,-2.68 -6.63,-6.539 -8.68,-11.578 -2.07,-5.043 -3.1,-10.883 -3.1,-17.532 z m 51.01,-38.089 v 2.57 c -3.49,-3.981 -6.92,-7.242 -10.31,-9.719 -3.38,-2.523 -7.06,-4.422 -11.02,-5.711 -3.95,-1.32 -8.27,-1.953 -12.96,-1.953 -6.21,0 -11.95,1.313 -17.24,3.934 -5.29,2.629 -9.86,6.39 -13.72,11.258 -3.87,4.878 -6.8,10.601 -8.79,17.191 -1.99,6.59 -2.99,13.711 -2.99,21.367 0,16.211 3.96,28.863 11.87,37.91 7.92,9.043 18.33,13.571 31.25,13.571 7.47,0 13.77,-1.289 18.9,-3.84 5.13,-2.559 10.13,-6.52 15.01,-11.821 v 38.274 c 0,5.32 1.05,9.34 3.18,12.058 2.12,2.731 5.14,4.079 9.07,4.079 3.93,0 6.95,-1.25 9.07,-3.75 2.12,-2.508 3.18,-6.18 3.18,-11.059 V 257.141 c 0,-4.942 -1.13,-8.641 -3.42,-11.11 -2.28,-2.461 -5.21,-3.703 -8.83,-3.703 -3.54,0 -6.47,1.281 -8.79,3.844 -2.31,2.578 -3.46,6.226 -3.46,10.969"
         style="fill:#444446;fill-opacity:1;fill-rule:nonzero;stroke:none"
         transform="matrix(0.13333333,0,0,-0.13333333,0,1066.6667)" />
      <path
         id="path4"
         d="m 2923.86,303.391 h 47.02 c -0.62,8.871 -3.03,15.511 -7.17,19.91 -4.15,4.398 -9.61,6.597 -16.38,6.597 -6.46,0 -11.77,-2.226 -15.91,-6.687 -4.15,-4.461 -6.66,-11.082 -7.56,-19.82 z m 50.72,-14.719 h -50.72 c 0.07,-5.883 1.25,-11.082 3.57,-15.57 2.3,-4.5 5.38,-7.891 9.21,-10.172 3.83,-2.282 8.06,-3.399 12.68,-3.399 3.1,0 5.93,0.348 8.5,1.071 2.57,0.738 5.05,1.867 7.46,3.429 2.41,1.539 4.62,3.211 6.65,4.989 2.02,1.781 4.64,4.191 7.88,7.23 1.32,1.129 3.23,1.699 5.7,1.699 2.66,0 4.81,-0.738 6.45,-2.187 1.65,-1.473 2.48,-3.512 2.48,-6.18 0,-2.34 -0.93,-5.062 -2.75,-8.211 -1.86,-3.133 -4.62,-6.141 -8.32,-9.019 -3.71,-2.883 -8.35,-5.27 -13.97,-7.172 -5.6,-1.899 -12.04,-2.852 -19.33,-2.852 -16.64,0 -29.6,4.754 -38.84,14.254 -9.24,9.488 -13.86,22.379 -13.86,38.648 0,7.661 1.13,14.77 3.41,21.321 2.29,6.558 5.61,12.168 9.97,16.859 4.37,4.692 9.75,8.27 16.16,10.781 6.39,2.5 13.48,3.739 21.27,3.739 10.13,0 18.82,-2.11 26.06,-6.399 7.26,-4.269 12.7,-9.801 16.3,-16.562 3.6,-6.778 5.41,-13.699 5.41,-20.707 0,-6.532 -1.87,-10.75 -5.6,-12.692 -3.73,-1.929 -8.99,-2.898 -15.77,-2.898"
         style="fill:#444446;fill-opacity:1;fill-rule:nonzero;stroke:none"
         transform="matrix(0.13333333,0,0,-0.13333333,0,1066.6667)" />
      <path
         id="path5"
         d="m 3092.73,276.25 c 0,-7.16 -1.74,-13.301 -5.23,-18.391 -3.48,-5.097 -8.62,-8.968 -15.43,-11.597 -6.81,-2.621 -15.09,-3.934 -24.84,-3.934 -9.3,0 -17.28,1.422 -23.93,4.281 -6.65,2.84 -11.56,6.411 -14.72,10.672 -3.17,4.289 -4.75,8.571 -4.75,12.879 0,2.852 1,5.281 3.04,7.309 2.02,2.019 4.59,3.031 7.7,3.031 2.71,0 4.8,-0.66 6.26,-1.988 1.46,-1.332 2.85,-3.203 4.17,-5.59 2.66,-4.641 5.85,-8.07 9.56,-10.371 3.7,-2.27 8.74,-3.41 15.15,-3.41 5.19,0 9.45,1.16 12.77,3.461 3.32,2.328 4.98,4.957 4.98,7.937 0,4.563 -1.72,7.871 -5.17,9.961 -3.46,2.09 -9.14,4.102 -17.05,6 -8.93,2.211 -16.2,4.539 -21.8,6.98 -5.61,2.422 -10.08,5.649 -13.44,9.629 -3.35,3.993 -5.03,8.911 -5.03,14.731 0,5.18 1.54,10.09 4.65,14.719 3.11,4.613 7.68,8.3 13.74,11.062 6.03,2.758 13.33,4.141 21.88,4.141 6.71,0 12.74,-0.692 18.09,-2.102 5.35,-1.379 9.83,-3.262 13.39,-5.609 3.58,-2.332 6.3,-4.93 8.17,-7.77 1.86,-2.851 2.8,-5.64 2.8,-8.371 0,-2.969 -1,-5.41 -2.99,-7.308 -1.99,-1.891 -4.82,-2.852 -8.5,-2.852 -2.66,0 -4.92,0.762 -6.79,2.289 -1.87,1.512 -4,3.789 -6.41,6.832 -1.96,2.52 -4.26,4.559 -6.93,6.078 -2.66,1.52 -6.27,2.27 -10.83,2.27 -4.69,0 -8.58,-0.981 -11.68,-2.989 -3.1,-1.98 -4.66,-4.468 -4.66,-7.441 0,-2.738 1.14,-4.957 3.42,-6.699 2.28,-1.75 5.35,-3.199 9.22,-4.328 3.86,-1.133 9.17,-2.52 15.96,-4.172 8.03,-1.969 14.6,-4.32 19.7,-7.031 5.09,-2.707 8.95,-5.938 11.59,-9.649 2.63,-3.699 3.94,-7.918 3.94,-12.66"
         style="fill:#444446;fill-opacity:1;fill-rule:nonzero;stroke:none"
         transform="matrix(0.13333333,0,0,-0.13333333,0,1066.6667)" />
      <path
         id="path6"
         d="m 3132.04,333.031 v -74.929 c 0,-5.192 -1.23,-9.133 -3.7,-11.793 -2.48,-2.649 -5.6,-3.981 -9.41,-3.981 -3.8,0 -6.89,1.363 -9.26,4.082 -2.38,2.731 -3.56,6.621 -3.56,11.692 v 74.179 c 0,5.117 1.18,8.981 3.56,11.578 2.37,2.602 5.46,3.903 9.26,3.903 3.81,0 6.93,-1.301 9.41,-3.903 2.47,-2.597 3.7,-6.207 3.7,-10.828 z m -12.82,26.778 c -3.61,0 -6.7,1.113 -9.26,3.332 -2.57,2.211 -3.85,5.339 -3.85,9.398 0,3.68 1.31,6.691 3.94,9.082 2.63,2.379 5.69,3.559 9.17,3.559 3.35,0 6.33,-1.071 8.92,-3.231 2.6,-2.16 3.9,-5.277 3.9,-9.41 0,-3.988 -1.27,-7.109 -3.81,-9.348 -2.53,-2.25 -5.53,-3.382 -9.01,-3.382"
         style="fill:#444446;fill-opacity:1;fill-rule:nonzero;stroke:none"
         transform="matrix(0.13333333,0,0,-0.13333333,0,1066.6667)" />
      <path
         id="path7"
         d="m 3170.5,295.891 c 0,-10.5 2.29,-18.45 6.88,-23.832 4.59,-5.387 10.53,-8.079 17.81,-8.079 4.3,0 8.37,1.161 12.2,3.469 3.84,2.313 6.95,5.801 9.36,10.442 2.4,4.66 3.61,10.308 3.61,16.961 0,10.57 -2.32,18.808 -6.98,24.687 -4.66,5.891 -10.78,8.832 -18.38,8.832 -7.42,0 -13.35,-2.82 -17.81,-8.449 -4.46,-5.633 -6.69,-13.652 -6.69,-24.031 z m 75.13,32.859 v -75.309 c 0,-8.613 -0.93,-16.019 -2.77,-22.23 -1.82,-6.199 -4.77,-11.332 -8.83,-15.379 -4.05,-4.051 -9.35,-7.07 -15.9,-9.019 -6.55,-1.973 -14.71,-2.954 -24.46,-2.954 -8.93,0 -16.91,1.25 -23.94,3.75 -7.02,2.512 -12.43,5.743 -16.24,9.692 -3.79,3.949 -5.7,8.031 -5.7,12.211 0,3.16 1.08,5.75 3.24,7.73 2.15,2 4.75,2.996 7.78,2.996 3.8,0 7.12,-1.679 9.98,-5.027 1.38,-1.711 2.82,-3.449 4.31,-5.191 1.49,-1.739 3.15,-3.231 4.94,-4.469 1.81,-1.219 3.98,-2.141 6.51,-2.742 2.53,-0.59 5.45,-0.899 8.74,-0.899 6.71,0 11.92,0.93 15.63,2.801 3.7,1.871 6.3,4.48 7.79,7.84 1.48,3.34 2.35,6.937 2.61,10.781 0.25,3.828 0.44,9.988 0.56,18.481 -3.99,-5.594 -8.59,-9.833 -13.82,-12.743 -5.22,-2.91 -11.44,-4.371 -18.66,-4.371 -8.67,0 -16.25,2.223 -22.75,6.653 -6.49,4.437 -11.47,10.636 -14.95,18.617 -3.49,7.98 -5.22,17.183 -5.22,27.633 0,7.789 1.05,14.828 3.17,21.089 2.13,6.278 5.15,11.559 9.07,15.868 3.93,4.3 8.46,7.543 13.58,9.73 5.13,2.18 10.77,3.27 16.91,3.27 7.34,0 13.71,-1.411 19.09,-4.207 5.38,-2.84 10.39,-7.25 15.01,-13.27 v 3.527 c 0,4.493 1.1,7.973 3.32,10.45 2.22,2.461 5.07,3.703 8.56,3.703 5,0 8.32,-1.641 9.96,-4.891 1.65,-3.269 2.48,-7.973 2.48,-14.121"
         style="fill:#444446;fill-opacity:1;fill-rule:nonzero;stroke:none"
         transform="matrix(0.13333333,0,0,-0.13333333,0,1066.6667)" />
      <path
         id="path8"
         d="m 3286.84,333.41 v -3.129 c 4.55,6.008 9.54,10.43 14.95,13.25 5.42,2.809 11.63,4.231 18.67,4.231 6.84,0 12.95,-1.5 18.33,-4.473 5.38,-2.98 9.41,-7.187 12.06,-12.617 1.72,-3.172 2.82,-6.602 3.32,-10.262 0.51,-3.691 0.77,-8.359 0.77,-14.07 v -48.238 c 0,-5.192 -1.19,-9.133 -3.57,-11.793 -2.37,-2.649 -5.46,-3.981 -9.25,-3.981 -3.87,0 -7,1.363 -9.41,4.082 -2.41,2.731 -3.61,6.621 -3.61,11.692 v 43.207 c 0,8.55 -1.19,15.093 -3.56,19.613 -2.38,4.519 -7.11,6.797 -14.21,6.797 -4.61,0 -8.82,-1.379 -12.62,-4.129 -3.8,-2.758 -6.59,-6.551 -8.36,-11.36 -1.27,-3.871 -1.9,-11.07 -1.9,-21.648 v -32.48 c 0,-5.25 -1.23,-9.211 -3.65,-11.84 -2.44,-2.621 -5.59,-3.934 -9.45,-3.934 -3.75,0 -6.81,1.363 -9.22,4.082 -2.4,2.731 -3.61,6.621 -3.61,11.692 v 74.929 c 0,4.938 1.07,8.641 3.23,11.078 2.15,2.43 5.1,3.653 8.83,3.653 2.28,0 4.34,-0.543 6.18,-1.621 1.83,-1.09 3.31,-2.7 4.42,-4.84 1.11,-2.16 1.66,-4.789 1.66,-7.891"
         style="fill:#444446;fill-opacity:1;fill-rule:nonzero;stroke:none"
         transform="matrix(0.13333333,0,0,-0.13333333,0,1066.6667)" />
      <path
         id="path9"
         d="m 3393.87,303.391 h 47.01 c -0.63,8.871 -3.02,15.511 -7.17,19.91 -4.15,4.398 -9.61,6.597 -16.38,6.597 -6.46,0 -11.77,-2.226 -15.92,-6.687 -4.15,-4.461 -6.65,-11.082 -7.54,-19.82 z m 50.71,-14.719 h -50.71 c 0.07,-5.883 1.24,-11.082 3.56,-15.57 2.31,-4.5 5.38,-7.891 9.22,-10.172 3.82,-2.282 8.05,-3.399 12.67,-3.399 3.1,0 5.93,0.348 8.51,1.071 2.55,0.738 5.04,1.867 7.45,3.429 2.4,1.539 4.61,3.211 6.66,4.989 2.01,1.781 4.64,4.191 7.87,7.23 1.33,1.129 3.23,1.699 5.7,1.699 2.66,0 4.81,-0.738 6.46,-2.187 1.65,-1.473 2.47,-3.512 2.47,-6.18 0,-2.34 -0.92,-5.062 -2.76,-8.211 -1.84,-3.133 -4.61,-6.141 -8.31,-9.019 -3.71,-2.883 -8.35,-5.27 -13.96,-7.172 -5.61,-1.899 -12.05,-2.852 -19.33,-2.852 -16.65,0 -29.6,4.754 -38.85,14.254 -9.24,9.488 -13.86,22.379 -13.86,38.648 0,7.661 1.14,14.77 3.41,21.321 2.28,6.558 5.61,12.168 9.98,16.859 4.37,4.692 9.75,8.27 16.15,10.781 6.39,2.5 13.49,3.739 21.28,3.739 10.12,0 18.8,-2.11 26.05,-6.399 7.26,-4.269 12.69,-9.801 16.3,-16.562 3.61,-6.778 5.42,-13.699 5.42,-20.707 0,-6.532 -1.87,-10.75 -5.61,-12.692 -3.73,-1.929 -8.99,-2.898 -15.77,-2.898"
         style="fill:#444446;fill-opacity:1;fill-rule:nonzero;stroke:none"
         transform="matrix(0.13333333,0,0,-0.13333333,0,1066.6667)" />
      <path
         id="path10"
         d="m 3499.28,295.23 c 0,-7.031 1.09,-13.011 3.27,-17.949 2.19,-4.941 5.18,-8.66 8.99,-11.152 3.79,-2.508 7.94,-3.77 12.43,-3.77 4.57,0 8.73,1.192 12.49,3.571 3.77,2.371 6.78,6.019 9.02,10.91 2.26,4.91 3.38,11.051 3.38,18.39 0,6.899 -1.12,12.84 -3.38,17.821 -2.24,4.961 -5.28,8.762 -9.11,11.398 -3.84,2.621 -8.03,3.922 -12.59,3.922 -4.74,0 -8.99,-1.34 -12.72,-4.031 -3.74,-2.68 -6.63,-6.539 -8.69,-11.578 -2.07,-5.043 -3.09,-10.883 -3.09,-17.532 z m 51,-38.089 v 2.57 c -3.48,-3.981 -6.91,-7.242 -10.3,-9.719 -3.39,-2.523 -7.06,-4.422 -11.02,-5.711 -3.95,-1.32 -8.27,-1.953 -12.96,-1.953 -6.21,0 -11.96,1.313 -17.24,3.934 -5.29,2.629 -9.86,6.39 -13.72,11.258 -3.87,4.878 -6.8,10.601 -8.79,17.191 -2,6.59 -2.99,13.711 -2.99,21.367 0,16.211 3.95,28.863 11.87,37.91 7.91,9.043 18.33,13.571 31.25,13.571 7.47,0 13.77,-1.289 18.9,-3.84 5.13,-2.559 10.13,-6.52 15,-11.821 v 38.274 c 0,5.32 1.06,9.34 3.19,12.058 2.11,2.731 5.15,4.079 9.07,4.079 3.92,0 6.94,-1.25 9.07,-3.75 2.12,-2.508 3.18,-6.18 3.18,-11.059 V 257.141 c 0,-4.942 -1.14,-8.641 -3.42,-11.11 -2.28,-2.461 -5.22,-3.703 -8.83,-3.703 -3.54,0 -6.47,1.281 -8.79,3.844 -2.31,2.578 -3.47,6.226 -3.47,10.969"
         style="fill:#444446;fill-opacity:1;fill-rule:nonzero;stroke:none"
         transform="matrix(0.13333333,0,0,-0.13333333,0,1066.6667)" />
      <path
         id="path11"
         d="m 3657.5,294.469 c 0,-10.328 2.36,-18.25 7.07,-23.778 4.72,-5.55 10.91,-8.332 18.57,-8.332 6.52,0 12.14,2.832 16.86,8.5 4.71,5.68 7.07,13.793 7.07,24.371 0,6.84 -0.97,12.731 -2.94,17.661 -1.97,4.949 -4.74,8.769 -8.35,11.449 -3.62,2.691 -7.83,4.031 -12.64,4.031 -4.94,0 -9.35,-1.34 -13.2,-4.031 -3.87,-2.68 -6.9,-6.578 -9.12,-11.68 -2.21,-5.09 -3.32,-11.16 -3.32,-18.191 z m -1.24,77.031 v -39.602 c 4.87,5.063 9.85,8.954 14.91,11.633 5.07,2.688 11.34,4.028 18.81,4.028 8.61,0 16.16,-2.039 22.66,-6.11 6.48,-4.097 11.51,-10.019 15.1,-17.769 3.57,-7.75 5.37,-16.961 5.37,-27.602 0,-7.848 -1,-15.039 -3,-21.598 -1.99,-6.55 -4.89,-12.238 -8.69,-17.039 -3.8,-4.82 -8.41,-8.55 -13.82,-11.179 -5.42,-2.621 -11.38,-3.934 -17.9,-3.934 -4,0 -7.75,0.473 -11.26,1.422 -3.52,0.949 -6.51,2.191 -8.98,3.75 -2.46,1.551 -4.57,3.148 -6.31,4.801 -1.74,1.64 -4.04,4.121 -6.89,7.41 v -2.57 c 0,-4.871 -1.17,-8.563 -3.51,-11.071 -2.34,-2.5 -5.32,-3.742 -8.93,-3.742 -3.67,0 -6.6,1.242 -8.78,3.742 -2.19,2.508 -3.28,6.2 -3.28,11.071 v 113.23 c 0,5.25 1.06,9.231 3.17,11.91 2.13,2.688 5.1,4.028 8.89,4.028 3.99,0 7.06,-1.278 9.21,-3.84 2.15,-2.571 3.23,-6.219 3.23,-10.969"
         style="fill:#444446;fill-opacity:1;fill-rule:nonzero;stroke:none"
         transform="matrix(0.13333333,0,0,-0.13333333,0,1066.6667)" />
      <path
         id="path12"
         d="m 3766.72,239.102 2.37,5.796 -31.91,80.352 c -1.96,4.609 -2.95,7.98 -2.95,10.07 0,2.211 0.58,4.262 1.71,6.16 1.15,1.899 2.71,3.43 4.7,4.559 2,1.152 4.07,1.723 6.23,1.723 3.73,0 6.54,-1.192 8.45,-3.571 1.91,-2.371 3.58,-5.769 5.03,-10.203 l 21.95,-63.828 20.8,59.371 c 1.64,4.789 3.13,8.571 4.46,11.301 1.33,2.719 2.73,4.559 4.22,5.488 1.49,0.961 3.6,1.442 6.32,1.442 1.97,0 3.85,-0.52 5.66,-1.571 1.8,-1.05 3.19,-2.449 4.17,-4.23 0.98,-1.77 1.48,-3.629 1.48,-5.602 -0.26,-1.199 -0.66,-2.91 -1.24,-5.14 -0.58,-2.199 -1.26,-4.469 -2.09,-6.731 l -33.81,-88.527 c -2.92,-7.781 -5.77,-13.879 -8.55,-18.32 -2.79,-4.43 -6.47,-7.852 -11.07,-10.211 -4.59,-2.391 -10.78,-3.571 -18.57,-3.571 -7.59,0 -13.29,0.821 -17.08,2.461 -3.82,1.66 -5.71,4.672 -5.71,9.039 0,2.973 0.9,5.27 2.71,6.883 1.8,1.61 4.48,2.43 8.02,2.43 1.39,0 2.76,-0.192 4.09,-0.582 1.64,-0.371 3.07,-0.57 4.27,-0.57 2.97,0 5.32,0.441 7.03,1.339 1.71,0.879 3.24,2.411 4.61,4.61 1.35,2.172 2.93,5.39 4.7,9.633"
         style="fill:#444446;fill-opacity:1;fill-rule:nonzero;stroke:none"
         transform="matrix(0.13333333,0,0,-0.13333333,0,1066.6667)" />
      <path
         id="path13"
         d="m 4142.35,345.512 h 6.18 v 7.789 c 0,8.14 1,14.57 3.07,19.371 2.04,4.789 5.55,8.258 10.46,10.449 4.91,2.168 11.64,3.258 20.17,3.258 15.2,0 22.73,-3.668 22.73,-11.141 0,-2.379 -0.79,-4.437 -2.41,-6.148 -1.54,-1.692 -3.42,-2.559 -5.57,-2.559 -1,0 -2.79,0.18 -5.28,0.59 -2.37,0.34 -4.52,0.559 -6.23,0.559 -4.67,0 -7.66,-1.41 -9.05,-4.149 -1.27,-2.75 -1.95,-6.691 -1.95,-11.851 v -6.168 h 6.33 c 9.91,0 14.81,-2.973 14.81,-8.953 0,-4.188 -1.27,-6.907 -3.93,-8.047 -2.61,-1.141 -6.24,-1.711 -10.88,-1.711 h -6.33 V 258.09 c 0,-5.11 -1.2,-9 -3.69,-11.68 -2.42,-2.719 -5.54,-4.058 -9.43,-4.058 -3.67,0 -6.71,1.339 -9.18,4.058 -2.44,2.68 -3.64,6.57 -3.64,11.68 v 68.711 h -7.14 c -3.89,0 -6.83,0.84 -8.93,2.621 -2.09,1.707 -3.15,3.988 -3.15,6.777 0,6.242 4.35,9.313 13.04,9.313"
         style="fill:#444446;fill-opacity:1;fill-rule:nonzero;stroke:none"
         transform="matrix(0.13333333,0,0,-0.13333333,0,1066.6667)" />
      <path
         id="path14"
         d="m 4227.24,279.77 v -21.68 c 0,-5.231 -1.33,-9.188 -3.74,-11.801 -2.47,-2.648 -5.58,-3.937 -9.37,-3.937 -3.82,0 -6.88,1.308 -9.27,4 -2.37,2.636 -3.61,6.57 -3.61,11.738 v 72.23 c 0,11.66 4.2,17.489 12.61,17.489 4.34,0 7.43,-1.348 9.34,-4.09 1.89,-2.727 2.95,-6.731 3.17,-12.078 3.08,5.347 6.24,9.351 9.48,12.078 3.32,2.742 7.63,4.09 13.1,4.09 5.49,0 10.72,-1.348 15.85,-4.09 5.16,-2.727 7.71,-6.36 7.71,-10.84 0,-3.149 -1.1,-5.797 -3.26,-7.82 -2.19,-2.09 -4.54,-3.11 -7.06,-3.11 -0.99,0 -3.31,0.621 -6.92,1.801 -3.65,1.129 -6.89,1.719 -9.63,1.719 -3.8,0 -6.92,-1.02 -9.32,-2.969 -2.42,-2.059 -4.3,-4.98 -5.64,-8.871 -1.29,-3.949 -2.19,-8.66 -2.73,-14.047 -0.48,-5.41 -0.71,-12.031 -0.71,-19.812"
         style="fill:#444446;fill-opacity:1;fill-rule:nonzero;stroke:none"
         transform="matrix(0.13333333,0,0,-0.13333333,0,1066.6667)" />
      <path
         id="path15"
         d="m 4295.71,303.441 h 47.01 c -0.62,8.848 -2.98,15.5 -7.14,19.868 -4.18,4.421 -9.59,6.601 -16.41,6.601 -6.45,0 -11.76,-2.199 -15.91,-6.691 -4.14,-4.469 -6.68,-11.047 -7.55,-19.778 m 50.74,-14.742 h -50.74 c 0.09,-5.879 1.24,-11.109 3.54,-15.59 2.36,-4.461 5.4,-7.859 9.25,-10.168 3.85,-2.269 8.04,-3.39 12.69,-3.39 3.1,0 5.92,0.328 8.49,1.109 2.54,0.692 5.05,1.852 7.45,3.41 2.43,1.52 4.6,3.18 6.64,5 2.03,1.75 4.67,4.16 7.9,7.18 1.35,1.141 3.25,1.742 5.69,1.742 2.68,0 4.81,-0.742 6.49,-2.211 1.66,-1.48 2.43,-3.511 2.43,-6.179 0,-2.352 -0.89,-5.071 -2.67,-8.192 -1.88,-3.172 -4.63,-6.16 -8.36,-9.058 -3.74,-2.852 -8.39,-5.27 -13.98,-7.141 -5.59,-1.902 -12.06,-2.859 -19.31,-2.859 -16.71,0 -29.64,4.73 -38.87,14.218 -9.24,9.52 -13.92,22.418 -13.92,38.68 0,7.672 1.18,14.781 3.48,21.352 2.25,6.578 5.58,12.148 9.99,16.867 4.36,4.711 9.7,8.281 16.12,10.781 6.38,2.492 13.47,3.742 21.28,3.742 10.11,0 18.81,-2.14 26.07,-6.453 7.24,-4.23 12.73,-9.769 16.29,-16.539 3.61,-6.809 5.42,-13.691 5.42,-20.75 0,-6.48 -1.89,-10.699 -5.62,-12.648 -3.73,-1.942 -8.97,-2.903 -15.75,-2.903"
         style="fill:#444446;fill-opacity:1;fill-rule:nonzero;stroke:none"
         transform="matrix(0.13333333,0,0,-0.13333333,0,1066.6667)" />
      <path
         id="path16"
         d="m 4403.59,303.441 h 47.01 c -0.63,8.848 -3.04,15.5 -7.15,19.868 -4.21,4.421 -9.62,6.601 -16.42,6.601 -6.46,0 -11.76,-2.199 -15.93,-6.691 -4.13,-4.469 -6.67,-11.047 -7.51,-19.778 m 50.73,-14.742 h -50.73 c 0.06,-5.879 1.25,-11.109 3.54,-15.59 2.32,-4.461 5.39,-7.859 9.21,-10.168 3.83,-2.269 8.06,-3.39 12.72,-3.39 3.07,0 5.93,0.328 8.44,1.109 2.59,0.692 5.06,1.852 7.5,3.41 2.43,1.52 4.6,3.18 6.64,5 2,1.75 4.64,4.16 7.89,7.18 1.34,1.141 3.26,1.742 5.68,1.742 2.68,0 4.83,-0.742 6.5,-2.211 1.65,-1.48 2.41,-3.511 2.41,-6.179 0,-2.352 -0.87,-5.071 -2.74,-8.192 -1.77,-3.172 -4.55,-6.16 -8.3,-9.058 -3.7,-2.852 -8.4,-5.27 -13.95,-7.141 -5.58,-1.902 -12.08,-2.859 -19.35,-2.859 -16.67,0 -29.59,4.73 -38.87,14.218 -9.24,9.52 -13.88,22.418 -13.88,38.68 0,7.672 1.16,14.781 3.47,21.352 2.27,6.578 5.59,12.148 9.96,16.867 4.36,4.711 9.73,8.281 16.15,10.781 6.37,2.492 13.5,3.742 21.28,3.742 10.09,0 18.78,-2.14 26.14,-6.453 7.19,-4.23 12.65,-9.769 16.21,-16.539 3.59,-6.809 5.45,-13.691 5.45,-20.75 0,-6.48 -1.92,-10.699 -5.62,-12.648 -3.75,-1.942 -8.99,-2.903 -15.75,-2.903"
         style="fill:#444446;fill-opacity:1;fill-rule:nonzero;stroke:none"
         transform="matrix(0.13333333,0,0,-0.13333333,0,1066.6667)" />
      <path
         id="path17"
         d="m 4561.96,295.539 c 0,6.852 -1.07,12.742 -3.15,17.633 -2.09,4.918 -4.99,8.668 -8.66,11.277 -3.67,2.633 -7.82,3.961 -12.32,3.961 -7.14,0 -13.19,-2.84 -18.09,-8.441 -4.92,-5.656 -7.39,-13.949 -7.39,-24.93 0,-10.258 2.44,-18.328 7.35,-24.059 4.87,-5.73 10.86,-8.582 18.13,-8.582 4.28,0 8.3,1.262 11.97,3.723 3.71,2.527 6.65,6.27 8.84,11.27 2.21,5.019 3.32,11.07 3.32,18.148 m -50.84,37.68 v -3.11 c 4.86,6.012 9.94,10.422 15.24,13.243 5.19,2.847 11.18,4.269 17.82,4.269 7.95,0 15.36,-2.082 22.07,-6.172 6.71,-4.14 11.99,-10.16 15.89,-18.07 3.9,-7.949 5.86,-17.289 5.86,-28.129 0,-7.961 -1.12,-15.309 -3.36,-22.012 -2.23,-6.679 -5.37,-12.269 -9.28,-16.797 -3.94,-4.5 -8.56,-8.019 -13.9,-10.461 -5.42,-2.41 -11.11,-3.628 -17.28,-3.628 -7.38,0 -13.64,1.48 -18.65,4.468 -5.03,2.922 -9.82,7.34 -14.41,13.059 v -38.93 c 0,-11.347 -4.16,-17.097 -12.44,-17.097 -4.91,0 -8.09,1.468 -9.72,4.398 -1.51,2.992 -2.33,7.23 -2.33,12.91 v 111.93 c 0,4.949 1.06,8.59 3.2,11.082 2.15,2.387 5.12,3.637 8.85,3.637 3.69,0 6.66,-1.25 8.95,-3.739 2.36,-2.539 3.49,-6.109 3.49,-10.851"
         style="fill:#444446;fill-opacity:1;fill-rule:nonzero;stroke:none"
         transform="matrix(0.13333333,0,0,-0.13333333,0,1066.6667)" />
      <path
         id="path18"
         d="m 4626.96,333.09 v -75.02 c 0,-5.148 -1.24,-9.082 -3.7,-11.718 -2.5,-2.692 -5.61,-4 -9.42,-4 -3.81,0 -6.84,1.339 -9.28,4.058 -2.33,2.77 -3.55,6.653 -3.55,11.66 v 74.282 c 0,5.097 1.22,8.937 3.55,11.539 2.44,2.648 5.47,3.918 9.28,3.918 3.81,0 6.92,-1.27 9.42,-3.918 2.46,-2.602 3.7,-6.219 3.7,-10.801 m -12.84,26.789 c -3.63,0 -6.69,1.141 -9.23,3.351 -2.6,2.219 -3.88,5.321 -3.88,9.36 0,3.68 1.31,6.699 3.96,9.101 2.62,2.348 5.67,3.559 9.15,3.559 3.39,0 6.35,-1.07 8.93,-3.191 2.6,-2.188 3.91,-5.348 3.91,-9.469 0,-3.988 -1.27,-7.11 -3.78,-9.352 -2.54,-2.218 -5.55,-3.359 -9.06,-3.359"
         style="fill:#444446;fill-opacity:1;fill-rule:nonzero;stroke:none"
         transform="matrix(0.13333333,0,0,-0.13333333,0,1066.6667)" />
      <path
         id="path19"
         d="m 4710.55,254.18 -22.84,37.66 -14.08,-13.281 V 257.91 c 0,-4.988 -1.33,-8.82 -3.97,-11.5 -2.56,-2.719 -5.66,-4.058 -9.06,-4.058 -3.98,0 -7.15,1.308 -9.4,4 -2.27,2.636 -3.44,6.57 -3.44,11.738 v 110.629 c 0,5.742 1.14,10.113 3.31,13.14 2.23,3.051 5.45,4.52 9.53,4.52 4,0 7.13,-1.367 9.49,-4.109 2.35,-2.7 3.54,-6.739 3.54,-12.02 v -62.93 l 29.16,30.621 c 3.62,3.758 6.33,6.411 8.27,7.789 1.89,1.379 4.19,2.079 6.89,2.079 3.27,0 5.94,-1.039 8.16,-3.09 2.11,-2.059 3.2,-4.66 3.2,-7.731 0,-3.789 -3.53,-8.886 -10.55,-15.218 l -13.77,-12.629 26.6,-41.821 c 1.93,-3.14 3.38,-5.441 4.23,-7.058 0.85,-1.59 1.3,-3.192 1.3,-4.621 0,-4.129 -1.14,-7.34 -3.4,-9.762 -2.25,-2.359 -5.24,-3.527 -8.86,-3.527 -3.17,0 -5.64,0.808 -7.34,2.558 -1.7,1.731 -4.07,4.832 -6.97,9.27"
         style="fill:#444446;fill-opacity:1;fill-rule:nonzero;stroke:none"
         transform="matrix(0.13333333,0,0,-0.13333333,0,1066.6667)" />
      <path
         id="path20"
         d="m 4766.91,242.352 c -3.92,0 -7.28,1.257 -10.14,3.808 -2.84,2.488 -4.28,6.051 -4.28,10.641 0,3.859 1.37,7.187 4.1,9.949 2.74,2.801 6.07,4.191 10.08,4.191 3.97,0 7.35,-1.39 10.22,-4.121 2.79,-2.75 4.22,-6.121 4.22,-10.019 0,-4.52 -1.43,-8.082 -4.22,-10.59 -2.87,-2.602 -6.19,-3.859 -9.98,-3.859"
         style="fill:#444446;fill-opacity:1;fill-rule:nonzero;stroke:none"
         transform="matrix(0.13333333,0,0,-0.13333333,0,1066.6667)" />
      <path
         id="path21"
         d="m 4895.89,274.449 c 0,-3.199 -0.96,-6.679 -2.91,-10.34 -1.91,-3.699 -4.88,-7.179 -8.85,-10.5 -3.95,-3.32 -8.92,-6.027 -14.96,-8.039 -6,-2.019 -12.8,-3.07 -20.3,-3.07 -16.06,0 -28.58,4.699 -37.58,14.02 -8.95,9.351 -13.45,21.89 -13.45,37.601 0,10.668 2.04,20.059 6.19,28.238 4.07,8.141 10.04,14.473 17.81,18.93 7.79,4.492 17.16,6.703 27.94,6.703 6.74,0 12.88,-0.972 18.53,-2.953 5.6,-1.949 10.32,-4.508 14.24,-7.578 3.87,-3.148 6.86,-6.441 8.9,-9.93 2.07,-3.511 3.08,-6.801 3.08,-9.871 0,-3.078 -1.14,-5.711 -3.43,-7.871 -2.36,-2.148 -5.16,-3.238 -8.39,-3.238 -2.19,0 -3.97,0.558 -5.41,1.66 -1.44,1.121 -3.05,2.898 -4.79,5.418 -3.17,4.781 -6.46,8.422 -9.96,10.793 -3.42,2.43 -7.8,3.617 -13.13,3.617 -7.62,0 -13.84,-2.98 -18.54,-8.969 -4.67,-5.961 -7.03,-14.199 -7.03,-24.539 0,-4.89 0.63,-9.402 1.83,-13.48 1.17,-4.071 2.91,-7.559 5.2,-10.442 2.31,-2.871 5.04,-5.046 8.26,-6.539 3.25,-1.539 6.81,-2.257 10.64,-2.257 5.21,0 9.67,1.199 13.37,3.609 3.76,2.41 7.02,6.066 9.86,11.019 1.59,2.911 3.27,5.18 5.09,6.84 1.83,1.629 4.09,2.489 6.76,2.489 3.16,0 5.8,-1.231 7.86,-3.629 2.11,-2.399 3.17,-4.989 3.17,-7.692"
         style="fill:#444446;fill-opacity:1;fill-rule:nonzero;stroke:none"
         transform="matrix(0.13333333,0,0,-0.13333333,0,1066.6667)" />
      <path
         id="path22"
         d="m 4981.76,295.051 c 0,10.59 -2.34,18.808 -6.98,24.691 -4.63,5.957 -10.9,8.879 -18.74,8.879 -5.08,0 -9.55,-1.32 -13.43,-3.941 -3.87,-2.61 -6.8,-6.489 -8.89,-11.641 -2.09,-5.129 -3.16,-11.129 -3.16,-17.988 0,-6.781 1.03,-12.672 3.1,-17.731 2.08,-5.109 5.02,-8.968 8.85,-11.66 3.86,-2.668 8.35,-4.039 13.53,-4.039 7.84,0 14.11,2.961 18.74,8.91 4.64,5.91 6.98,14.11 6.98,24.52 m 26.04,0 c 0,-7.692 -1.22,-14.84 -3.56,-21.379 -2.47,-6.531 -5.92,-12.133 -10.5,-16.793 -4.55,-4.688 -10.02,-8.277 -16.31,-10.801 -6.4,-2.469 -13.5,-3.75 -21.39,-3.75 -7.85,0 -14.93,1.281 -21.21,3.832 -6.23,2.488 -11.71,6.141 -16.26,10.82 -4.61,4.762 -8.09,10.34 -10.52,16.77 -2.29,6.43 -3.5,13.539 -3.5,21.301 0,7.871 1.24,15.058 3.58,21.59 2.42,6.539 5.89,12.109 10.39,16.718 4.51,4.621 9.93,8.18 16.31,10.711 6.43,2.489 13.49,3.739 21.21,3.739 7.84,0 14.98,-1.25 21.39,-3.821 6.37,-2.508 11.82,-6.136 16.43,-10.789 4.58,-4.75 8.03,-10.289 10.4,-16.719 2.34,-6.511 3.54,-13.601 3.54,-21.429"
         style="fill:#444446;fill-opacity:1;fill-rule:nonzero;stroke:none"
         transform="matrix(0.13333333,0,0,-0.13333333,0,1066.6667)" />
      <path
         id="path23"
         d="m 5106.71,293.148 v -34.457 c 0,-5.472 -1.2,-9.511 -3.69,-12.281 -2.5,-2.719 -5.71,-4.082 -9.77,-4.082 -3.93,0 -7.14,1.363 -9.51,4.082 -2.48,2.77 -3.73,6.809 -3.73,12.281 V 300 c 0,6.531 -0.2,11.621 -0.63,15.238 -0.46,3.532 -1.68,6.551 -3.62,8.832 -1.97,2.352 -5.09,3.512 -9.31,3.512 -8.51,0 -14.07,-2.902 -16.77,-8.812 -2.67,-5.758 -4.06,-14.129 -4.06,-25.059 v -35.02 c 0,-5.382 -1.22,-9.472 -3.61,-12.242 -2.49,-2.73 -5.68,-4.121 -9.65,-4.121 -3.96,0 -7.17,1.391 -9.67,4.121 -2.52,2.77 -3.76,6.86 -3.76,12.242 v 74.188 c 0,4.891 1.11,8.601 3.35,11.109 2.29,2.571 5.26,3.821 8.9,3.821 3.56,0 6.51,-1.227 8.91,-3.559 2.37,-2.379 3.55,-5.66 3.55,-9.84 v -2.449 c 4.53,5.348 9.34,9.309 14.44,11.801 5.17,2.597 10.82,3.859 17.13,3.859 6.51,0 12.11,-1.312 16.78,-3.902 4.69,-2.598 8.53,-6.547 11.6,-11.758 4.39,5.281 9.09,9.23 14.1,11.801 5,2.57 10.53,3.859 16.62,3.859 7.06,0 13.21,-1.422 18.34,-4.191 5.1,-2.782 8.93,-6.789 11.48,-11.95 2.2,-4.73 3.3,-12.101 3.3,-22.167 v -50.622 c 0,-5.472 -1.22,-9.511 -3.68,-12.281 -2.46,-2.719 -5.75,-4.082 -9.79,-4.082 -3.95,0 -7.14,1.391 -9.65,4.121 -2.5,2.77 -3.76,6.86 -3.76,12.242 v 43.61 c 0,5.59 -0.23,10.027 -0.69,13.379 -0.47,3.371 -1.77,6.199 -3.83,8.461 -2.12,2.281 -5.3,3.441 -9.53,3.441 -3.42,0 -6.66,-1.062 -9.74,-3.07 -3.06,-1.992 -5.47,-4.77 -7.2,-8.133 -1.86,-4.379 -2.85,-12.129 -2.85,-23.231"
         style="fill:#444446;fill-opacity:1;fill-rule:nonzero;stroke:none"
         transform="matrix(0.13333333,0,0,-0.13333333,0,1066.6667)" />
      <path
         id="path24"
         d="m 3899.67,301.332 -0.02,0.18 0.02,-0.18"
         style="fill:#444446;fill-opacity:1;fill-rule:nonzero;stroke:none"
         transform="matrix(0.13333333,0,0,-0.13333333,0,1066.6667)" />
      <path
         id="path25"
         d="m 3900.98,293.039 h 0.03 c -0.5,2.371 -0.89,4.711 -1.19,7.02 0.3,-2.329 0.69,-4.68 1.16,-7.02"
         style="fill:#444446;fill-opacity:1;fill-rule:nonzero;stroke:none"
         transform="matrix(0.13333333,0,0,-0.13333333,0,1066.6667)" />
      <path
         id="path26"
         d="m 3909.56,268.98 -0.17,0.333 0.17,-0.333"
         style="fill:#444446;fill-opacity:1;fill-rule:nonzero;stroke:none"
         transform="matrix(0.13333333,0,0,-0.13333333,0,1066.6667)" />
      <path
         id="path27"
         d="m 3908.74,270.582 -0.65,1.34 0.65,-1.34"
         style="fill:#444446;fill-opacity:1;fill-rule:nonzero;stroke:none"
         transform="matrix(0.13333333,0,0,-0.13333333,0,1066.6667)" />
      <path
         id="path28"
         d="m 3903.39,283.77 c 1.27,-4 2.8,-7.879 4.57,-11.579 -1.8,3.778 -3.3,7.668 -4.54,11.579 h -0.03"
         style="fill:#444446;fill-opacity:1;fill-rule:nonzero;stroke:none"
         transform="matrix(0.13333333,0,0,-0.13333333,0,1066.6667)" />
      <path
         id="path29"
         d="m 4000.04,400.699 c 5.01,0 8.71,-0.398 12.95,-1.117 l 1.2,7.629 c 0,0 -11.7,3.609 -27.1,2.348 l -1.21,4.152 c 4.78,1 8.38,5.258 8.38,10.34 0,5.82 -4.74,10.531 -10.57,10.531 -5.83,0 -10.56,-4.711 -10.56,-10.531 0,-5.082 3.58,-9.34 8.36,-10.34 l 1.34,-4.629 c -16.35,-2.25 -29.35,-8.633 -29.35,-8.633 l 2.3,-7.047 c 9.89,3.289 18.46,5.297 26.24,6.137 7.62,0.813 13.35,1.16 18.02,1.16"
         style="fill:#444446;fill-opacity:1;fill-rule:nonzero;stroke:none"
         transform="matrix(0.13333333,0,0,-0.13333333,0,1066.6667)" />
      <path
         id="path30"
         d="m 3909.36,362.109 0.06,0.082 1.14,1.43 -3.13,2.25 -4.88,3.57 c -0.27,-0.382 -7.95,-7.441 -14.02,-20.48 l -0.89,1.191 c -1.82,1.977 -4.36,2.996 -7.59,2.938 h -0.14 c -2,0 -3.37,0.66 -4.27,1.48 0.89,1.129 1.43,2.551 1.43,4.129 0,3.68 -3,6.692 -6.69,6.692 -3.69,0 -6.69,-3.012 -6.69,-6.692 0,-3.699 3,-6.687 6.69,-6.687 l 1.67,0.199 c 1.64,-1.82 4.25,-3.422 8.07,-3.34 1.97,0.02 3.41,-0.492 4.38,-1.551 1.1,-1.211 1.48,-2.961 1.59,-4.281 l -0.03,-0.047 c -4.35,-11.89 -3.11,-26.703 -3.11,-26.703 l 10.58,-0.418 c 0.21,5.391 0.98,14.828 3.71,22.309 5.26,14.492 11.86,23.55 12.12,23.929"
         style="fill:#444446;fill-opacity:1;fill-rule:nonzero;stroke:none"
         transform="matrix(0.13333333,0,0,-0.13333333,0,1066.6667)" />
      <path
         id="path31"
         d="m 4092.04,391.859 c -3.69,0 -6.69,-2.988 -6.69,-6.687 l 0.23,-1.652 c -1.84,-1.661 -3.43,-4.278 -3.37,-8.098 0.03,-1.981 -0.48,-3.402 -1.54,-4.371 -0.85,-0.75 -1.92,-1.153 -2.96,-1.41 -7.87,11.031 -17.56,17.757 -17.56,17.757 l -7.59,-8.136 c 5.74,-5.211 11.59,-11.75 17.29,-19.903 3.93,-5.64 7.99,-12.898 11.36,-20.148 l 10.24,4.871 c 0,0 -4.68,11.547 -11.26,21.91 1.14,0.399 2.3,1.028 3.31,1.93 2,1.797 2.99,4.359 2.93,7.57 -0.02,2.078 0.67,3.488 1.49,4.418 1.14,-0.871 2.56,-1.43 4.12,-1.43 3.71,0 6.7,3 6.7,6.692 0,3.699 -2.99,6.687 -6.7,6.687"
         style="fill:#444446;fill-opacity:1;fill-rule:nonzero;stroke:none"
         transform="matrix(0.13333333,0,0,-0.13333333,0,1066.6667)" />
      <path
         id="path32"
         d="m 4065.46,299.84 c -14.09,-6.871 -37.28,-15.938 -67.81,-20.199 -11.98,-1.661 -23.59,-2.27 -34.28,-2.27 -13.91,0 -26.2,1.031 -35.63,2.231 -10.76,1.347 -19.17,3.007 -24.32,4.168 1.24,-3.911 2.74,-7.801 4.54,-11.579 l 0.13,-0.269 0.65,-1.34 0.65,-1.269 0.17,-0.333 c 3.03,-5.699 6.66,-10.949 10.81,-15.488 14.4,-15.754 29.07,-18.242 29.2,-18.262 l 0.23,-0.031 0.22,-0.078 c 0.13,-0.051 13.14,-4.25 32.91,-4.25 19.46,0 38.55,3.93 56.74,11.668 13.48,6.902 26.22,17.371 32.54,26.703 4.89,7.227 8.41,14.938 10.5,22.938 1.11,4.261 1.99,11.082 1.47,18.25 -3.96,-2.66 -10.23,-6.461 -18.72,-10.59"
         style="fill:#444446;fill-opacity:1;fill-rule:nonzero;stroke:none"
         transform="matrix(0.13333333,0,0,-0.13333333,0,1066.6667)" />
      <path
         id="path33"
         d="m 3954.17,366.141 c 15.57,0 28.17,-12.621 28.17,-28.18 0,-15.551 -12.6,-28.141 -28.17,-28.141 -15.55,0 -28.16,12.59 -28.16,28.141 0,15.559 12.61,28.18 28.16,28.18 z m 82.42,-0.7 c 9.61,0 17.43,-7.812 17.43,-17.429 0,-9.621 -7.82,-17.442 -17.43,-17.442 -9.62,0 -17.42,7.821 -17.42,17.442 0,9.617 7.8,17.429 17.42,17.429 z m -122.7,-6.671 c -0.41,-0.59 -6.52,-9.239 -11.35,-22.52 -3.62,-9.961 -3.46,-24.437 -3.46,-24.609 v -0.02 c 0,-3.402 0.19,-6.769 0.57,-10.109 l 0.02,-0.18 0.15,-1.273 c 0.3,-2.309 0.69,-4.649 1.19,-7.02 7,-1.777 48.78,-11.519 95.48,-5.019 29.27,4.082 51.49,12.73 64.99,19.269 11.21,5.441 18.42,10.363 21.2,12.383 -2.77,10.289 -10.42,26.406 -17.43,36.469 -20.05,28.648 -41.67,36 -52.78,37.828 -4.23,0.691 -7.62,1.09 -12.43,1.09 -4.47,0 -10.02,-0.36 -17.43,-1.137 -7.43,-0.774 -15.72,-2.723 -25.32,-5.961 -13.48,-4.512 -25.67,-11.59 -35.27,-20.469 l -0.33,-0.312 c -1.42,-1.309 -4.39,-4.059 -7.8,-8.41"
         style="fill:#444446;fill-opacity:1;fill-rule:nonzero;stroke:none"
         transform="matrix(0.13333333,0,0,-0.13333333,0,1066.6667)" />
      <path
         id="path34"
         d="m 6957.37,4000 c 0,-1633.31 -1324.06,-2957.37 -2957.37,-2957.37 -1633.31,0 -2957.38,1324.06 -2957.38,2957.37 0,1633.32 1324.07,2957.38 2957.38,2957.38 1633.31,0 2957.37,-1324.06 2957.37,-2957.38"
         style="fill:#6cceda;fill-opacity:1;fill-rule:nonzero;stroke:none"
         transform="matrix(0.13333333,0,0,-0.13333333,0,1066.6667)" />
      <path
         id="path35"
         d="m 5838.59,5775.39 c -60.17,163.81 -217.64,280.72 -402.36,280.72 -35.72,0 -70.51,-4.36 -103.66,-12.67 -30.26,150.23 -162.95,263.37 -322.09,263.37 -146.88,0 -271.22,-96.39 -313.29,-229.35 v 0 c -58.98,83.83 -156.43,138.69 -266.75,138.69 -46.2,0 -90.18,-9.6 -130.03,-27.09 l -0.05,-0.02 c -24.73,37.93 -56.7,70.71 -94,96.32 0.81,8.24 1.24,16.59 1.24,25.05 0,140.44 -113.85,254.29 -254.29,254.29 -104.15,0 -193.63,-62.65 -232.94,-152.29 -61.91,91.86 -166.9,152.29 -286.01,152.29 -190.36,0 -344.67,-154.31 -344.67,-344.67 0,-1.7 0.1,-3.39 0.13,-5.09 -8.28,0.74 -16.64,1.18 -25.1,1.18 -154.65,0 -280.01,-125.36 -280.01,-280.01 0,-39.31 8.14,-76.71 22.76,-110.66 -40.54,-5.83 -77.05,-23.74 -105.93,-50.06 -40.2,-36.51 -65.4,-89.23 -65.4,-147.86 h 80 320.03 1202.01 384.52 384.95 548.56 308.61 c 0,51.95 -9.26,101.75 -26.23,147.86"
         style="fill:#fcfcfd;fill-opacity:1;fill-rule:nonzero;stroke:none"
         transform="matrix(0.13333333,0,0,-0.13333333,0,1066.6667)" />
      <path
         id="path36"
         d="M 3215.09,4894.72 H 1180.43 c 114.91,362.55 297.76,694.76 533.75,981.84 52.42,17.83 108.6,27.06 167.08,26.33 211,-2.67 389.85,-135.17 461.68,-320.57 74.98,-30.45 137.23,-85.54 176.66,-155.3 15.05,2.06 30.45,2.91 46.11,2.91 183.33,0 334.52,-138.32 354.54,-316.32 20.86,6.31 43.07,9.71 66.12,9.71 54.12,0 103.62,-18.81 142.93,-50.24 52.3,-41.86 85.79,-106.17 85.79,-178.36"
         style="fill:#fcfcfd;fill-opacity:1;fill-rule:nonzero;stroke:none"
         transform="matrix(0.13333333,0,0,-0.13333333,0,1066.6667)" />
      <path
         id="path37"
         d="M 6874.29,4699.01 H 5244.16 c 0,55.81 15.9,108.11 43.44,152.15 50.72,81.9 141.48,136.38 244.97,136.38 17.48,0 34.58,-1.45 51.21,-4.49 -0.85,9.47 -1.46,19.05 -1.46,28.88 0,172.78 140.14,312.8 312.92,312.8 13.95,0 27.79,-0.97 41.25,-2.79 71.11,142.33 219.01,239.27 388.76,237.09 85.66,-1.1 165.01,-27.18 231.26,-71.35 141.72,-242.91 249.71,-508.02 317.78,-788.67"
         style="fill:#fcfcfd;fill-opacity:1;fill-rule:nonzero;stroke:none"
         transform="matrix(0.13333333,0,0,-0.13333333,0,1066.6667)" />
      <path
         id="path38"
         d="m 4000,1042.63 c 1587.38,0 2882.51,1250.67 2954.1,2820.36 l -399.44,667.75 -448.03,-748.95 -124.69,208.44 h 87.1 l -520.42,869.99 -520.42,-869.99 h 87.09 l -285.9,-477.94 h 148.44 l -283.42,-528.71 h 719.05 V 2699.97 H 4310.7 l -223.66,417.25 h 148.43 l -285.9,477.93 h 87.1 l -520.42,869.99 -339.88,-568.17 -379.13,633.77 -124.26,-207.73 -320.13,535.15 -448.38,-749.54 -279.94,467.99 -520.43,-869.99 h 87.1 L 1081.16,3522.68 C 1309.4,2116.36 2529.21,1042.63 4000,1042.63"
         style="fill:#17382f;fill-opacity:1;fill-rule:nonzero;stroke:none"
         transform="matrix(0.13333333,0,0,-0.13333333,0,1066.6667)" />
      <path
         id="path39"
         d="m 5326.54,2510.99 h -187.88 v 304.72 h 187.88 V 2510.99 M 6559.42,3819.52 6190.2,3202.31 h 61.79 l -202.83,-339.08 h 105.31 l -188.82,-352.24 h -447.33 v 304.72 h 510.14 l -201.08,375.1 h 105.31 l -202.84,339.07 h 61.8 l -369.22,617.22 -124.4,-207.96 -255.26,426.71 -369.22,-617.21 h 61.8 l -202.84,-339.08 h 105.31 l -201.08,-375.1 h 496.93 l -117.26,-218.75 h 130.47 v -304.72 h -425.14 v 239.54 H 3000.69 l -174.06,290.98 h 61.79 l -369.22,617.22 -85.55,-143.02 -232.77,389.11 -120.68,-201.75 -278.18,465.02 -369.21,-617.21 h 61.79 L 1340.51,3293.29 1196,3534.87 1106.71,3385.6 C 1389.54,2047.18 2577.38,1042.63 4000,1042.63 c 1390.58,0 2556.78,959.84 2872.76,2253.08 l -313.34,523.81"
         style="fill:#1b493d;fill-opacity:1;fill-rule:nonzero;stroke:none"
         transform="matrix(0.13333333,0,0,-0.13333333,0,1066.6667)" />
      <path
         id="path40"
         d="m 6285.21,2122.72 c -30.58,-37.25 -62.12,-73.65 -94.52,-109.32 -23.05,-25.48 -46.47,-50.36 -70.37,-74.99 -236.12,-242.79 -513.49,-445.05 -820.83,-595.63 -54.36,-26.69 -109.56,-51.69 -165.62,-74.98 -349.2,-145.12 -732.13,-225.2 -1133.87,-225.2 -793.28,0 -1513.52,312.44 -2044.6,820.83 -25.73,24.51 -50.97,49.5 -75.72,74.98 -57.39,59.09 -112.47,120.61 -164.89,184.31 h 4570.42"
         style="fill:#41a53b;fill-opacity:1;fill-rule:nonzero;stroke:none"
         transform="matrix(0.13333333,0,0,-0.13333333,0,1066.6667)" />
      <path
         id="path41"
         d="m 3507.99,1900.92 c 0,-20.75 -16.87,-37.49 -37.49,-37.49 H 1955.4 c -25.73,24.51 -50.97,49.5 -75.72,74.98 H 3470.5 c 20.62,0 37.49,-16.74 37.49,-37.49"
         style="fill:#38913a;fill-opacity:1;fill-rule:nonzero;stroke:none"
         transform="matrix(0.13333333,0,0,-0.13333333,0,1066.6667)" />
      <path
         id="path42"
         d="M 4361.84,1763.41 H 2529.28 c -20.7,0 -37.48,-16.79 -37.48,-37.49 0,-20.7 16.78,-37.48 37.48,-37.48 h 1832.56 c 20.7,0 37.49,16.78 37.49,37.48 0,20.7 -16.79,37.49 -37.49,37.49"
         style="fill:#38913a;fill-opacity:1;fill-rule:nonzero;stroke:none"
         transform="matrix(0.13333333,0,0,-0.13333333,0,1066.6667)" />
      <path
         id="path43"
         d="m 6190.69,2013.4 c -23.05,-25.48 -46.47,-50.36 -70.37,-74.99 H 4977.95 c -20.74,0 -37.49,16.75 -37.49,37.49 0,20.63 16.75,37.5 37.49,37.5 h 1212.74"
         style="fill:#38913a;fill-opacity:1;fill-rule:nonzero;stroke:none"
         transform="matrix(0.13333333,0,0,-0.13333333,0,1066.6667)" />
      <path
         id="path44"
         d="m 5299.49,1342.78 c -54.36,-26.69 -109.56,-51.69 -165.62,-74.98 H 3907.42 c -20.75,0 -37.49,16.74 -37.49,37.49 0,20.75 16.74,37.49 37.49,37.49 h 1392.07"
         style="fill:#38913a;fill-opacity:1;fill-rule:nonzero;stroke:none"
         transform="matrix(0.13333333,0,0,-0.13333333,0,1066.6667)" />
      <path
         id="path45"
         d="m 2070.68,1991.05 c 0,-58.14 47.14,-105.28 105.29,-105.28 0,58.15 -47.14,105.28 -105.29,105.28"
         style="fill:#7cce73;fill-opacity:1;fill-rule:nonzero;stroke:none"
         transform="matrix(0.13333333,0,0,-0.13333333,0,1066.6667)" />
      <path
         id="path46"
         d="m 2281.25,1991.05 c 0,-58.14 -47.14,-105.28 -105.28,-105.28 0,58.15 47.13,105.28 105.28,105.28"
         style="fill:#60c25c;fill-opacity:1;fill-rule:nonzero;stroke:none"
         transform="matrix(0.13333333,0,0,-0.13333333,0,1066.6667)" />
      <path
         id="path47"
         d="m 3301.82,1305.29 c 0,-29.07 23.57,-52.64 52.64,-52.64 0,29.07 -23.57,52.64 -52.64,52.64"
         style="fill:#7cce73;fill-opacity:1;fill-rule:nonzero;stroke:none"
         transform="matrix(0.13333333,0,0,-0.13333333,0,1066.6667)" />
      <path
         id="path48"
         d="m 3407.1,1305.29 c 0,-29.07 -23.57,-52.64 -52.64,-52.64 0,29.07 23.57,52.64 52.64,52.64"
         style="fill:#60c25c;fill-opacity:1;fill-rule:nonzero;stroke:none"
         transform="matrix(0.13333333,0,0,-0.13333333,0,1066.6667)" />
      <path
         id="path49"
         d="m 4990.13,1789.73 c 0,-29.08 23.57,-52.64 52.64,-52.64 0,29.07 -23.57,52.64 -52.64,52.64"
         style="fill:#7cce73;fill-opacity:1;fill-rule:nonzero;stroke:none"
         transform="matrix(0.13333333,0,0,-0.13333333,0,1066.6667)" />
      <path
         id="path50"
         d="m 5095.41,1789.73 c 0,-29.08 -23.57,-52.64 -52.64,-52.64 0,29.07 23.57,52.64 52.64,52.64"
         style="fill:#60c25c;fill-opacity:1;fill-rule:nonzero;stroke:none"
         transform="matrix(0.13333333,0,0,-0.13333333,0,1066.6667)" />
      <path
         id="path51"
         d="m 5710.96,2058.51 c 0,-49.83 40.4,-90.23 90.23,-90.23 0,49.83 -40.4,90.23 -90.23,90.23"
         style="fill:#7cce73;fill-opacity:1;fill-rule:nonzero;stroke:none"
         transform="matrix(0.13333333,0,0,-0.13333333,0,1066.6667)" />
      <path
         id="path52"
         d="m 5891.42,2058.51 c 0,-49.83 -40.39,-90.23 -90.23,-90.23 0,49.83 40.4,90.23 90.23,90.23"
         style="fill:#60c25c;fill-opacity:1;fill-rule:nonzero;stroke:none"
         transform="matrix(0.13333333,0,0,-0.13333333,0,1066.6667)" />
      <path
         id="path53"
         d="m 3927.4,2103.63 c 0,-49.84 40.4,-90.23 90.23,-90.23 0,49.83 -40.39,90.23 -90.23,90.23"
         style="fill:#7cce73;fill-opacity:1;fill-rule:nonzero;stroke:none"
         transform="matrix(0.13333333,0,0,-0.13333333,0,1066.6667)" />
      <path
         id="path54"
         d="m 4107.87,2103.63 c 0,-49.84 -40.4,-90.23 -90.24,-90.23 0,49.83 40.4,90.23 90.24,90.23"
         style="fill:#60c25c;fill-opacity:1;fill-rule:nonzero;stroke:none"
         transform="matrix(0.13333333,0,0,-0.13333333,0,1066.6667)" />
      <path
         id="path55"
         d="m 5634.64,2951.14 c 0,-7.57 -6.13,-13.69 -13.69,-13.69 h -19.13 c -7.56,0 -13.69,6.12 -13.69,13.69 v 48.23 c 0,7.56 6.13,13.69 13.69,13.69 h 19.13 c 7.56,0 13.69,-6.13 13.69,-13.69 z m -77,0 c 0,-7.57 -6.13,-13.69 -13.69,-13.69 h -19.13 c -7.56,0 -13.69,6.12 -13.69,13.69 v 48.23 c 0,7.56 6.13,13.69 13.69,13.69 h 19.13 c 7.56,0 13.69,-6.13 13.69,-13.69 z m 69.47,79.31 h -108.45 c -14.86,0 -26.92,-12.05 -26.92,-26.92 v -77.73 h 162.29 v 77.73 c 0,14.87 -12.05,26.92 -26.92,26.92"
         style="fill:#c7eac0;fill-opacity:1;fill-rule:nonzero;stroke:none"
         transform="matrix(0.13333333,0,0,-0.13333333,0,1066.6667)" />
      <path
         id="path56"
         d="m 5576.71,2967.75 h -7.65 c -3.22,0 -5.84,-2.62 -5.84,-5.84 v -27.26 h 19.33 v 27.26 c 0,3.22 -2.62,5.84 -5.84,5.84"
         style="fill:#bcbbb9;fill-opacity:1;fill-rule:nonzero;stroke:none"
         transform="matrix(0.13333333,0,0,-0.13333333,0,1066.6667)" />
      <path
         id="path57"
         d="m 5685.12,2561.79 h -224.47 c 0,30.67 24.86,55.54 55.53,55.54 h 113.41 c 30.67,0 55.53,-24.87 55.53,-55.54"
         style="fill:#6eb82e;fill-opacity:1;fill-rule:nonzero;stroke:none"
         transform="matrix(0.13333333,0,0,-0.13333333,0,1066.6667)" />
      <path
         id="path58"
         d="m 5460.65,2561.79 c 0,-4.18 3.4,-7.58 7.58,-7.58 h 209.31 c 4.18,0 7.58,3.4 7.58,7.58 h -224.47"
         style="fill:#5ca333;fill-opacity:1;fill-rule:nonzero;stroke:none"
         transform="matrix(0.13333333,0,0,-0.13333333,0,1066.6667)" />
      <path
         id="path59"
         d="m 5572.89,2951.2 c -80.42,0 -145.61,-35.82 -145.61,-80 v -211.92 c 0,-44.19 65.19,-80.01 145.61,-80.01 80.41,0 145.6,35.82 145.6,80.01 v 211.92 c 0,44.18 -65.19,80 -145.6,80"
         style="fill:#a6db69;fill-opacity:1;fill-rule:nonzero;stroke:none"
         transform="matrix(0.13333333,0,0,-0.13333333,0,1066.6667)" />
      <path
         id="path60"
         d="m 5572.89,2625.31 c -62.22,0 -116.08,7.48 -142.81,18.41 13.19,-36.74 72.09,-64.45 142.81,-64.45 70.71,0 129.61,27.71 142.79,64.45 -26.72,-10.93 -80.58,-18.41 -142.79,-18.41"
         style="fill:#92d34f;fill-opacity:1;fill-rule:nonzero;stroke:none"
         transform="matrix(0.13333333,0,0,-0.13333333,0,1066.6667)" />
      <path
         id="path61"
         d="m 5572.89,2905.16 c 62.21,0 116.07,-7.48 142.79,-18.4 -13.18,36.73 -72.08,64.44 -142.79,64.44 -70.72,0 -129.62,-27.71 -142.81,-64.44 26.73,10.92 80.59,18.4 142.81,18.4"
         style="fill:#c1e695;fill-opacity:1;fill-rule:nonzero;stroke:none"
         transform="matrix(0.13333333,0,0,-0.13333333,0,1066.6667)" />
      <path
         id="path62"
         d="m 5639.78,2765.24 c 0,-36.95 -29.95,-66.9 -66.89,-66.9 -36.95,0 -66.9,29.95 -66.9,66.9 0,36.94 29.95,66.89 66.9,66.89 36.94,0 66.89,-29.95 66.89,-66.89"
         style="fill:#fcfcfd;fill-opacity:1;fill-rule:nonzero;stroke:none"
         transform="matrix(0.13333333,0,0,-0.13333333,0,1066.6667)" />
      <path
         id="path63"
         d="m 5597.15,2746.85 c 0,-13.4 -10.86,-24.26 -24.26,-24.26 -13.41,0 -24.27,10.86 -24.27,24.26 0,13.41 24.27,61.04 24.27,61.04 0,0 24.26,-47.63 24.26,-61.04"
         style="fill:#f89c19;fill-opacity:1;fill-rule:nonzero;stroke:none"
         transform="matrix(0.13333333,0,0,-0.13333333,0,1066.6667)" />
      <path
         id="path64"
         d="m 5586.9,2736.6 c 0,-7.74 -6.27,-14.01 -14.01,-14.01 -7.75,0 -14.02,6.27 -14.02,14.01 0,7.75 14.02,35.25 14.02,35.25 0,0 14.01,-27.5 14.01,-35.25"
         style="fill:#f57e14;fill-opacity:1;fill-rule:nonzero;stroke:none"
         transform="matrix(0.13333333,0,0,-0.13333333,0,1066.6667)" />
      <path
         id="path65"
         d="m 5846.31,2122.7 h 47.9336 v 360.121 H 5846.31 Z"
         style="fill:#595a5c;fill-opacity:1;fill-rule:nonzero;stroke:none"
         transform="matrix(0.13333333,0,0,-0.13333333,0,1066.6667)" />
      <path
         id="path66"
         d="m 5846.31,2122.7 h 47.9336 v 606.352 H 5846.31 Z"
         style="fill:#595a5c;fill-opacity:1;fill-rule:nonzero;stroke:none"
         transform="matrix(0.13333333,0,0,-0.13333333,0,1066.6667)" />
      <path
         id="path67"
         d="m 5917.16,2729.05 c 0,-25.89 -20.99,-46.89 -46.88,-46.89 -25.9,0 -46.89,21 -46.89,46.89 0,25.9 20.99,46.89 46.89,46.89 25.89,0 46.88,-20.99 46.88,-46.89"
         style="fill:#f1f1f1;fill-opacity:1;fill-rule:nonzero;stroke:none"
         transform="matrix(0.13333333,0,0,-0.13333333,0,1066.6667)" />
      <path
         id="path68"
         d="m 5901.82,2498.35 -478.59,-133.87 v 38.92 l 478.59,133.87 v -38.92"
         style="fill:#6e7071;fill-opacity:1;fill-rule:nonzero;stroke:none"
         transform="matrix(0.13333333,0,0,-0.13333333,0,1066.6667)" />
      <path
         id="path69"
         d="m 5423.23,2484.44 h 530.16 v 69.7695 h -530.16 z"
         style="fill:#bcbbb9;fill-opacity:1;fill-rule:nonzero;stroke:none"
         transform="matrix(0.13333333,0,0,-0.13333333,0,1066.6667)" />
      <path
         id="path70"
         d="m 3301.82,2403.4 h -807.79 v 154.95 h 807.79 V 2403.4"
         style="fill:#1b493d;fill-opacity:1;fill-rule:nonzero;stroke:none"
         transform="matrix(0.13333333,0,0,-0.13333333,0,1066.6667)" />
      <path
         id="path71"
         d="m 3166.7,2399.12 c 0,-152.66 -123.76,-276.42 -276.42,-276.42 -152.67,0 -276.43,123.76 -276.43,276.42 0,152.67 123.76,276.43 276.43,276.43 152.66,0 276.42,-123.76 276.42,-276.43"
         style="fill:#201e1d;fill-opacity:1;fill-rule:nonzero;stroke:none"
         transform="matrix(0.13333333,0,0,-0.13333333,0,1066.6667)" />
      <path
         id="path72"
         d="m 3049.51,2399.12 c 0,-87.94 -71.29,-159.23 -159.23,-159.23 -87.94,0 -159.23,71.29 -159.23,159.23 0,87.94 71.29,159.23 159.23,159.23 87.94,0 159.23,-71.29 159.23,-159.23"
         style="fill:#226659;fill-opacity:1;fill-rule:nonzero;stroke:none"
         transform="matrix(0.13333333,0,0,-0.13333333,0,1066.6667)" />
      <path
         id="path73"
         d="m 3005.24,2399.12 c 0,-63.49 -51.47,-114.96 -114.96,-114.96 -63.5,0 -114.97,51.47 -114.97,114.96 0,63.5 51.47,114.97 114.97,114.97 63.49,0 114.96,-51.47 114.96,-114.97"
         style="fill:#f8f8f8;fill-opacity:1;fill-rule:nonzero;stroke:none"
         transform="matrix(0.13333333,0,0,-0.13333333,0,1066.6667)" />
      <path
         id="path74"
         d="M 4622.43,4134.44 H 3000.89 c -442.27,0 -800.8,-358.54 -800.8,-800.81 V 2403.4 h 318.02 l 58.61,148.09 h 627.11 l 58.62,-148.09 h 2160.78 v 930.23 c 0,442.27 -358.53,800.81 -800.8,800.81"
         style="fill:#40aa98;fill-opacity:1;fill-rule:nonzero;stroke:none"
         transform="matrix(0.13333333,0,0,-0.13333333,0,1066.6667)" />
      <path
         id="path75"
         d="m 2200.09,3333.63 v -602.4 h 3223.14 v 602.4 c 0,49.16 -4.66,97.19 -13.14,143.9 H 2213.23 c -8.48,-46.71 -13.14,-94.74 -13.14,-143.9"
         style="fill:#fbe663;fill-opacity:1;fill-rule:nonzero;stroke:none"
         transform="matrix(0.13333333,0,0,-0.13333333,0,1066.6667)" />
      <path
         id="path76"
         d="M 5422.43,3370.06 H 2200.88 c 0.61,13.11 1.58,26.09 2.79,39.07 h 3215.97 c 1.21,-12.98 2.18,-25.96 2.79,-39.07"
         style="fill:#fbd333;fill-opacity:1;fill-rule:nonzero;stroke:none"
         transform="matrix(0.13333333,0,0,-0.13333333,0,1066.6667)" />
      <path
         id="path77"
         d="m 2200.03,3263.9 h 3223.25 v 39.0586 H 2200.03 Z"
         style="fill:#fbd333;fill-opacity:1;fill-rule:nonzero;stroke:none"
         transform="matrix(0.13333333,0,0,-0.13333333,0,1066.6667)" />
      <path
         id="path78"
         d="m 5423.28,3196.8 v -38.95 H 2200.03 v 38.95 h 3223.25"
         style="fill:#fbd333;fill-opacity:1;fill-rule:nonzero;stroke:none"
         transform="matrix(0.13333333,0,0,-0.13333333,0,1066.6667)" />
      <path
         id="path79"
         d="m 5423.28,3090.63 v -38.95 H 2200.03 v 38.95 h 3223.25"
         style="fill:#fbd333;fill-opacity:1;fill-rule:nonzero;stroke:none"
         transform="matrix(0.13333333,0,0,-0.13333333,0,1066.6667)" />
      <path
         id="path80"
         d="m 2200.03,2945.51 h 3223.25 v 39.0703 H 2200.03 Z"
         style="fill:#fbd333;fill-opacity:1;fill-rule:nonzero;stroke:none"
         transform="matrix(0.13333333,0,0,-0.13333333,0,1066.6667)" />
      <path
         id="path81"
         d="m 2200.03,2839.35 h 3223.25 v 39.0703 H 2200.03 Z"
         style="fill:#fbd333;fill-opacity:1;fill-rule:nonzero;stroke:none"
         transform="matrix(0.13333333,0,0,-0.13333333,0,1066.6667)" />
      <path
         id="path82"
         d="m 4441.44,3706.72 c -192.86,0 -349.2,-156.34 -349.2,-349.2 V 2403.4 h 698.4 v 954.12 c 0,192.86 -156.35,349.2 -349.2,349.2"
         style="fill:#e3e2e0;fill-opacity:1;fill-rule:nonzero;stroke:none"
         transform="matrix(0.13333333,0,0,-0.13333333,0,1066.6667)" />
      <path
         id="path83"
         d="m 4188.81,2940.21 c -7.51,-7.51 -16.08,-11.12 -19.13,-8.07 -3.06,3.06 0.55,11.62 8.06,19.13 7.51,7.51 16.08,11.12 19.13,8.06 3.05,-3.05 -0.56,-11.61 -8.06,-19.12"
         style="fill:#f9f139;fill-opacity:1;fill-rule:nonzero;stroke:none"
         transform="matrix(0.13333333,0,0,-0.13333333,0,1066.6667)" />
      <path
         id="path84"
         d="m 4441.44,3682.47 c -179.26,0 -324.57,-145.32 -324.57,-324.57 v -954.5 h 649.14 v 954.5 c 0,179.25 -145.32,324.57 -324.57,324.57"
         style="fill:#fcfcfd;fill-opacity:1;fill-rule:nonzero;stroke:none"
         transform="matrix(0.13333333,0,0,-0.13333333,0,1066.6667)" />
      <path
         id="path85"
         d="m 4162.87,2875.59 h 71.7891 v 68.6289 H 4162.87 Z"
         style="fill:#c3c1c0;fill-opacity:1;fill-rule:nonzero;stroke:none"
         transform="matrix(0.13333333,0,0,-0.13333333,0,1066.6667)"
         clip-path="url(#clipPath86)" />
      <path
         id="path87"
         d="m 4234.66,2928.22 c 0,-19.82 -16.07,-35.89 -35.89,-35.89 -19.83,0 -35.9,16.07 -35.9,35.89 0,19.83 16.07,35.9 35.9,35.9 19.82,0 35.89,-16.07 35.89,-35.9"
         style="fill:#6e7071;fill-opacity:1;fill-rule:nonzero;stroke:none"
         transform="matrix(0.13333333,0,0,-0.13333333,0,1066.6667)" />
      <path
         id="path88"
         d="m 4661.63,3357.9 c 0,-121.61 -98.58,-220.19 -220.19,-220.19 -121.61,0 -220.19,98.58 -220.19,220.19 0,121.61 98.58,220.19 220.19,220.19 121.61,0 220.19,-98.58 220.19,-220.19"
         style="fill:#e3e2e0;fill-opacity:1;fill-rule:nonzero;stroke:none"
         transform="matrix(0.13333333,0,0,-0.13333333,0,1066.6667)" />
      <path
         id="path89"
         d="m 4641.61,3357.9 c 0,-110.55 -89.62,-200.17 -200.17,-200.17 -110.55,0 -200.17,89.62 -200.17,200.17 0,110.54 89.62,200.16 200.17,200.16 110.55,0 200.17,-89.62 200.17,-200.16"
         style="fill:#6ec8f1;fill-opacity:1;fill-rule:nonzero;stroke:none"
         transform="matrix(0.13333333,0,0,-0.13333333,0,1066.6667)" />
      <path
         id="path90"
         d="m 4460.95,3557.07 -218.69,-218.68 c -0.73,6.45 -1.03,12.9 -1.03,19.51 0,7.77 0.45,15.39 1.33,23.02 l 175.85,175.86 c 7.63,0.88 15.26,1.32 23.03,1.32 6.6,0 13.05,-0.29 19.51,-1.03"
         style="fill:#90daf7;fill-opacity:1;fill-rule:nonzero;stroke:none"
         transform="matrix(0.13333333,0,0,-0.13333333,0,1066.6667)" />
      <path
         id="path91"
         d="M 4578.14,3504.13 4295.36,3221.2 c -20.24,21.56 -35.79,47.52 -44.88,76.41 l 251.24,251.25 c 28.9,-9.09 54.86,-24.64 76.42,-44.73"
         style="fill:#90daf7;fill-opacity:1;fill-rule:nonzero;stroke:none"
         transform="matrix(0.13333333,0,0,-0.13333333,0,1066.6667)" />
      <path
         id="path92"
         d="m 4438.35,3578.07 v 0 0 m 6.17,0 v 0 0 m -5.67,0.01 c 0.01,0 0.02,0 0.02,0 -0.01,0 -0.01,0 -0.02,0 m 5.17,0 c -0.01,0 -0.01,0 -0.02,0 0.01,0 0.02,0 0.02,0 m -4.65,0 c 0.01,0 0.02,0 0.03,0 -0.01,0 -0.02,0 -0.03,0 m 4.13,0 c 0,0 -0.02,0 -0.03,0 0.01,0 0.02,0 0.03,0 m -3.66,0 c 0.03,0 0.06,0 0.09,0.01 -0.03,-0.01 -0.06,-0.01 -0.09,-0.01 m 3.19,0 c -0.03,0 -0.05,0 -0.08,0.01 0.02,-0.01 0.05,-0.01 0.08,-0.01 m -2.63,0.01 c 0.01,0 0.03,0 0.04,0 -0.01,0 -0.03,0 -0.04,0 m 2.08,0 c -0.02,0 -0.04,0 -0.05,0 0.02,0 0.03,0 0.05,0 m -1.62,0 c 0.04,0 0.08,0 0.11,0 -0.03,0 -0.07,0 -0.11,0 m 1.15,0 c -0.04,0 -0.07,0 -0.11,0 0.04,0 0.07,0 0.11,0"
         style="fill:#c3c1c0;fill-opacity:1;fill-rule:nonzero;stroke:none"
         transform="matrix(0.13333333,0,0,-0.13333333,0,1066.6667)" />
      <path
         id="path93"
         d="m 4640.29,3451.98 c -18.16,20.92 -39.57,38.97 -63.44,53.33 -0.36,0.33 -0.73,0.67 -1.09,1 -8.59,7.78 -17.87,14.82 -27.71,21.03 -14.31,9.04 -29.84,16.33 -46.33,21.52 l -0.02,-0.03 c -14.24,4.49 -29.17,7.43 -44.58,8.63 -5.18,0.45 -10.38,0.64 -15.68,0.64 -7.77,0 -15.4,-0.44 -23.03,-1.32 l -0.03,-0.03 c -43.08,-4.94 -82.02,-23.57 -112.33,-51.42 -23.88,-14.37 -45.29,-32.41 -63.47,-53.35 34.89,73.6 109.19,124.9 195.77,126.09 v 0 c 0.17,0 0.34,0 0.5,0.01 0.01,0 0.01,0 0.02,0 0.17,0 0.33,0 0.5,0 0.01,0 0.02,0 0.03,0 0.15,0 0.29,0 0.44,0 0.03,0 0.06,0 0.09,0.01 0.15,0 0.31,0 0.47,0 0.01,0 0.03,0 0.04,0 0.14,0 0.28,0 0.42,0 0.04,0 0.08,0 0.11,0 0.16,0 0.31,0 0.47,0 0.15,0 0.3,0 0.46,0 0.04,0 0.07,0 0.11,0 0.14,0 0.28,0 0.42,0 0.01,0 0.03,0 0.05,0 0.15,0 0.31,0 0.47,0 0.03,-0.01 0.05,-0.01 0.08,-0.01 0.15,0 0.29,0 0.44,0 0.01,0 0.03,0 0.03,0 0.17,0 0.34,0 0.5,0 0.01,0 0.01,0 0.02,0 0.17,-0.01 0.33,-0.01 0.5,-0.01 v 0 c 86.59,-1.19 160.88,-52.49 195.77,-126.09"
         style="fill:#adadab;fill-opacity:1;fill-rule:nonzero;stroke:none"
         transform="matrix(0.13333333,0,0,-0.13333333,0,1066.6667)" />
      <path
         id="path94"
         d="m 4306.05,3505.33 c 30.31,27.85 69.25,46.48 112.33,51.42 l -16.95,-16.96 c -34.45,-5.26 -66.7,-17.2 -95.38,-34.46 m 269.71,0.98 c -8.6,7.76 -17.87,14.81 -27.71,21.03 9.84,-6.21 19.12,-13.25 27.71,-21.03 m -84.75,31.84 c -14.4,2.75 -29.23,4.32 -44.37,4.62 l 14.31,14.3 c -1.28,0.15 -2.55,0.28 -3.83,0.39 15.41,-1.2 30.34,-4.14 44.58,-8.63 l -10.69,-10.68"
         style="fill:#4e98c5;fill-opacity:1;fill-rule:nonzero;stroke:none"
         transform="matrix(0.13333333,0,0,-0.13333333,0,1066.6667)" />
      <path
         id="path95"
         d="m 4401.43,3539.79 16.95,16.96 0.03,0.03 c 7.63,0.88 15.26,1.32 23.03,1.32 5.3,0 10.5,-0.19 15.68,-0.64 1.28,-0.11 2.55,-0.24 3.83,-0.39 l -14.31,-14.3 c -1.73,0.03 -3.46,0.05 -5.2,0.05 -13.61,0 -26.97,-1.04 -40.01,-3.03"
         style="fill:#69a7c5;fill-opacity:1;fill-rule:nonzero;stroke:none"
         transform="matrix(0.13333333,0,0,-0.13333333,0,1066.6667)" />
      <path
         id="path96"
         d="m 4576.85,3505.31 c -26.02,15.66 -54.97,26.95 -85.84,32.84 l 10.69,10.68 0.02,0.03 c 16.49,-5.19 32.02,-12.48 46.33,-21.52 9.84,-6.22 19.11,-13.27 27.71,-21.03 0.36,-0.33 0.73,-0.67 1.09,-1"
         style="fill:#69a7c5;fill-opacity:1;fill-rule:nonzero;stroke:none"
         transform="matrix(0.13333333,0,0,-0.13333333,0,1066.6667)" />
      <path
         id="path97"
         d="m 4766.01,3236.56 c -6.7,0 -12.14,-5.43 -12.14,-12.13 v -54.57 c 0,-6.7 5.44,-12.13 12.14,-12.13 6.7,0 12.13,5.43 12.13,12.13 v 54.57 c 0,6.7 -5.43,12.13 -12.13,12.13"
         style="fill:#595a5c;fill-opacity:1;fill-rule:nonzero;stroke:none"
         transform="matrix(0.13333333,0,0,-0.13333333,0,1066.6667)" />
      <path
         id="path98"
         d="m 4766.01,2772.67 c -6.7,0 -12.14,-5.43 -12.14,-12.13 v -54.57 c 0,-6.7 5.44,-12.13 12.14,-12.13 6.7,0 12.13,5.43 12.13,12.13 v 54.57 c 0,6.7 -5.43,12.13 -12.13,12.13"
         style="fill:#595a5c;fill-opacity:1;fill-rule:nonzero;stroke:none"
         transform="matrix(0.13333333,0,0,-0.13333333,0,1066.6667)" />
      <path
         id="path99"
         d="m 4766.01,2325.55 h 711.62 c 21.5,0 38.93,17.43 38.93,38.93 0,21.5 -17.43,38.92 -38.93,38.92 h -711.62 v -77.85"
         style="fill:#f8f8f8;fill-opacity:1;fill-rule:nonzero;stroke:none"
         transform="matrix(0.13333333,0,0,-0.13333333,0,1066.6667)" />
      <path
         id="path100"
         d="M 4092.24,2691.82 H 2200.09 c -13.32,0 -24.12,10.8 -24.12,24.12 v 30.59 c 0,13.32 10.8,24.12 24.12,24.12 h 1892.15 v -78.83"
         style="fill:#f8f8f8;fill-opacity:1;fill-rule:nonzero;stroke:none"
         transform="matrix(0.13333333,0,0,-0.13333333,0,1066.6667)" />
      <path
         id="path101"
         d="m 4790.64,2691.82 h 632.59 c 13.33,0 24.12,10.8 24.12,24.12 v 30.59 c 0,13.32 -10.79,24.12 -24.12,24.12 h -632.59 v -78.83"
         style="fill:#f8f8f8;fill-opacity:1;fill-rule:nonzero;stroke:none"
         transform="matrix(0.13333333,0,0,-0.13333333,0,1066.6667)" />
      <path
         id="path102"
         d="m 2200.09,2672.51 h 1892.15 v 19.3086 H 2200.09 Z"
         style="fill:#328377;fill-opacity:1;fill-rule:nonzero;stroke:none"
         transform="matrix(0.13333333,0,0,-0.13333333,0,1066.6667)" />
      <path
         id="path103"
         d="m 4790.64,2672.51 h 632.59 v 19.3086 h -632.59 z"
         style="fill:#328377;fill-opacity:1;fill-rule:nonzero;stroke:none"
         transform="matrix(0.13333333,0,0,-0.13333333,0,1066.6667)" />
      <path
         id="path104"
         d="m 3702.31,4243.79 h -513.49 c -60.4,0 -109.35,-48.96 -109.35,-109.35 h 732.19 c 0,60.39 -48.96,109.35 -109.35,109.35"
         style="fill:#fcfcfd;fill-opacity:1;fill-rule:nonzero;stroke:none"
         transform="matrix(0.13333333,0,0,-0.13333333,0,1066.6667)" />
      <path
         id="path105"
         d="m 3245.41,2364.02 -62.19,157.13 h -585.88 l -62.2,-157.13 -56.4,22.34 77.36,195.46 h 668.35 l 77.37,-195.46 -56.41,-22.34"
         style="fill:#2e8b7a;fill-opacity:1;fill-rule:nonzero;stroke:none"
         transform="matrix(0.13333333,0,0,-0.13333333,0,1066.6667)" />
      <path
         id="path106"
         d="m 4116.87,2325.55 h -856.41 c -21.5,0 -38.93,17.43 -38.93,38.93 0,21.5 17.43,38.92 38.93,38.92 h 856.41 v -77.85"
         style="fill:#f8f8f8;fill-opacity:1;fill-rule:nonzero;stroke:none"
         transform="matrix(0.13333333,0,0,-0.13333333,0,1066.6667)" />
      <path
         id="path107"
         d="m 2515.26,2325.55 h -369.57 c -21.5,0 -38.93,17.43 -38.93,38.93 0,21.5 17.43,38.92 38.93,38.92 h 369.57 c 21.5,0 38.92,-17.42 38.92,-38.92 0,-21.5 -17.42,-38.93 -38.92,-38.93"
         style="fill:#f8f8f8;fill-opacity:1;fill-rule:nonzero;stroke:none"
         transform="matrix(0.13333333,0,0,-0.13333333,0,1066.6667)" />
      <path
         id="path108"
         d="m 4823.64,2352.9 h -764.4 v 50.46 h 764.4 v -50.46"
         style="fill:#bcbbb9;fill-opacity:1;fill-rule:nonzero;stroke:none"
         transform="matrix(0.13333333,0,0,-0.13333333,0,1066.6667)" />
      <path
         id="path109"
         d="m 4846.9,2302.44 h -810.92 v 50.46 h 810.92 v -50.46"
         style="fill:#6e7071;fill-opacity:1;fill-rule:nonzero;stroke:none"
         transform="matrix(0.13333333,0,0,-0.13333333,0,1066.6667)" />
      <path
         id="path110"
         d="m 3498.04,3332.25 h 342.313 v 145.281 H 3498.04 Z"
         style="fill:#6ec8f1;fill-opacity:1;fill-rule:nonzero;stroke:none"
         transform="matrix(0.13333333,0,0,-0.13333333,0,1066.6667)" />
      <path
         id="path111"
         d="M 3638.33,3477.57 3498.07,3337.3 v 20.27 l 120.12,120 h 20.14"
         style="fill:#90daf7;fill-opacity:1;fill-rule:nonzero;stroke:none"
         transform="matrix(0.13333333,0,0,-0.13333333,0,1066.6667)" />
      <path
         id="path112"
         d="m 3719.14,3477.57 -145.36,-145.36 h -54.24 l 145.36,145.36 h 54.24"
         style="fill:#90daf7;fill-opacity:1;fill-rule:nonzero;stroke:none"
         transform="matrix(0.13333333,0,0,-0.13333333,0,1066.6667)" />
      <path
         id="path113"
         d="m 3516.25,3350.46 h 305.9 v 108.87 h -305.9 v -108.87 m 324.1,-36.4 h -342.31 c -10.05,0 -18.2,8.14 -18.2,18.19 v 145.28 c 0,10.06 8.15,18.2 18.2,18.2 h 342.31 c 10.06,0 18.2,-8.14 18.2,-18.2 v -145.28 c 0,-10.05 -8.14,-18.19 -18.2,-18.19"
         style="fill:#fcfcfd;fill-opacity:1;fill-rule:nonzero;stroke:none"
         transform="matrix(0.13333333,0,0,-0.13333333,0,1066.6667)" />
      <path
         id="path114"
         d="m 3822.15,3438.94 h -141.64 l 20.39,20.39 h 121.25 v -20.39 m -195.87,0 h -26.58 l 20.4,20.39 h 26.57 l -20.39,-20.39 m -46.76,0 h -63.27 v 20.39 h 83.69 l -20.42,-20.39"
         style="fill:#4e98c5;fill-opacity:1;fill-rule:nonzero;stroke:none"
         transform="matrix(0.13333333,0,0,-0.13333333,0,1066.6667)" />
      <path
         id="path115"
         d="m 3599.7,3438.94 h -20.18 l 20.42,20.39 h 20.16 l -20.4,-20.39"
         style="fill:#69a7c5;fill-opacity:1;fill-rule:nonzero;stroke:none"
         transform="matrix(0.13333333,0,0,-0.13333333,0,1066.6667)" />
      <path
         id="path116"
         d="m 3680.51,3438.94 h -54.23 l 20.39,20.39 h 54.23 l -20.39,-20.39"
         style="fill:#69a7c5;fill-opacity:1;fill-rule:nonzero;stroke:none"
         transform="matrix(0.13333333,0,0,-0.13333333,0,1066.6667)" />
      <path
         id="path117"
         d="m 3855.92,3302.96 h -373.45 c -1.67,2.75 -2.63,5.98 -2.63,9.43 v 19.86 c 0,-10.06 8.15,-18.2 18.2,-18.2 h 342.31 c 10.06,0 18.2,8.14 18.2,18.2 v -19.86 c 0,-3.45 -0.96,-6.68 -2.63,-9.43"
         style="fill:#c1b24d;fill-opacity:1;fill-rule:nonzero;stroke:none"
         transform="matrix(0.13333333,0,0,-0.13333333,0,1066.6667)" />
      <path
         id="path118"
         d="m 3840.35,3294.19 h -342.31 c -6.6,0 -12.38,3.51 -15.57,8.77 h 373.45 c -3.19,-5.26 -8.97,-8.77 -15.57,-8.77"
         style="fill:#c1a52b;fill-opacity:1;fill-rule:nonzero;stroke:none"
         transform="matrix(0.13333333,0,0,-0.13333333,0,1066.6667)" />
      <path
         id="path119"
         d="m 3506.41,3474.33 c 0,-4.61 -3.74,-8.34 -8.34,-8.34 -4.61,0 -8.34,3.73 -8.34,8.34 0,4.61 3.73,8.34 8.34,8.34 4.6,0 8.34,-3.73 8.34,-8.34"
         style="fill:#bcbbb9;fill-opacity:1;fill-rule:nonzero;stroke:none"
         transform="matrix(0.13333333,0,0,-0.13333333,0,1066.6667)" />
      <path
         id="path120"
         d="m 3496.56,3476.02 c -1.93,-1.93 -4.11,-2.87 -4.87,-2.11 -0.75,0.75 0.19,2.93 2.12,4.86 1.93,1.93 4.11,2.88 4.87,2.12 0.76,-0.76 -0.19,-2.94 -2.12,-4.87"
         style="fill:#e3e2e0;fill-opacity:1;fill-rule:nonzero;stroke:none"
         transform="matrix(0.13333333,0,0,-0.13333333,0,1066.6667)" />
      <path
         id="path121"
         d="m 3848.67,3474.33 c 0,-4.61 -3.74,-8.34 -8.34,-8.34 -4.61,0 -8.34,3.73 -8.34,8.34 0,4.61 3.73,8.34 8.34,8.34 4.6,0 8.34,-3.73 8.34,-8.34"
         style="fill:#bcbbb9;fill-opacity:1;fill-rule:nonzero;stroke:none"
         transform="matrix(0.13333333,0,0,-0.13333333,0,1066.6667)" />
      <path
         id="path122"
         d="m 3838.82,3476.02 c -1.93,-1.93 -4.11,-2.87 -4.87,-2.11 -0.75,0.75 0.19,2.93 2.12,4.86 1.93,1.93 4.11,2.88 4.87,2.12 0.76,-0.76 -0.19,-2.94 -2.12,-4.87"
         style="fill:#e3e2e0;fill-opacity:1;fill-rule:nonzero;stroke:none"
         transform="matrix(0.13333333,0,0,-0.13333333,0,1066.6667)" />
      <path
         id="path123"
         d="m 3506.41,3335.46 c 0,-4.61 -3.74,-8.35 -8.34,-8.35 -4.61,0 -8.34,3.74 -8.34,8.35 0,4.6 3.73,8.34 8.34,8.34 4.6,0 8.34,-3.74 8.34,-8.34"
         style="fill:#bcbbb9;fill-opacity:1;fill-rule:nonzero;stroke:none"
         transform="matrix(0.13333333,0,0,-0.13333333,0,1066.6667)" />
      <path
         id="path124"
         d="m 3496.56,3337.15 c -1.93,-1.93 -4.11,-2.88 -4.87,-2.12 -0.75,0.76 0.19,2.94 2.12,4.87 1.93,1.93 4.11,2.87 4.87,2.12 0.76,-0.76 -0.19,-2.94 -2.12,-4.87"
         style="fill:#e3e2e0;fill-opacity:1;fill-rule:nonzero;stroke:none"
         transform="matrix(0.13333333,0,0,-0.13333333,0,1066.6667)" />
      <path
         id="path125"
         d="m 3848.67,3335.46 c 0,-4.61 -3.74,-8.35 -8.34,-8.35 -4.61,0 -8.34,3.74 -8.34,8.35 0,4.6 3.73,8.34 8.34,8.34 4.6,0 8.34,-3.74 8.34,-8.34"
         style="fill:#bcbbb9;fill-opacity:1;fill-rule:nonzero;stroke:none"
         transform="matrix(0.13333333,0,0,-0.13333333,0,1066.6667)" />
      <path
         id="path126"
         d="m 3838.82,3337.15 c -1.93,-1.93 -4.11,-2.88 -4.87,-2.12 -0.75,0.76 0.19,2.94 2.12,4.87 1.93,1.93 4.11,2.87 4.87,2.12 0.76,-0.76 -0.19,-2.94 -2.12,-4.87"
         style="fill:#e3e2e0;fill-opacity:1;fill-rule:nonzero;stroke:none"
         transform="matrix(0.13333333,0,0,-0.13333333,0,1066.6667)" />
      <path
         id="path127"
         d="m 4972.62,3332.25 h 292.758 v 145.281 H 4972.62 Z"
         style="fill:#6ec8f1;fill-opacity:1;fill-rule:nonzero;stroke:none"
         transform="matrix(0.13333333,0,0,-0.13333333,0,1066.6667)" />
      <path
         id="path128"
         d="M 5112.9,3477.57 4972.64,3337.3 v 20.27 l 120.12,120 h 20.14"
         style="fill:#90daf7;fill-opacity:1;fill-rule:nonzero;stroke:none"
         transform="matrix(0.13333333,0,0,-0.13333333,0,1066.6667)" />
      <path
         id="path129"
         d="m 5193.71,3477.57 -145.36,-145.36 h -54.24 l 145.36,145.36 h 54.24"
         style="fill:#90daf7;fill-opacity:1;fill-rule:nonzero;stroke:none"
         transform="matrix(0.13333333,0,0,-0.13333333,0,1066.6667)" />
      <path
         id="path130"
         d="m 4990.82,3350.46 h 256.36 v 108.87 h -256.36 v -108.87 m 274.56,-36.4 h -292.76 c -10.06,0 -18.21,8.14 -18.21,18.19 v 145.28 c 0,10.06 8.15,18.2 18.21,18.2 h 292.76 c 10.05,0 18.2,-8.14 18.2,-18.2 v -145.28 c 0,-10.05 -8.15,-18.19 -18.2,-18.19"
         style="fill:#fcfcfd;fill-opacity:1;fill-rule:nonzero;stroke:none"
         transform="matrix(0.13333333,0,0,-0.13333333,0,1066.6667)" />
      <path
         id="path131"
         d="m 5247.18,3438.94 h -92.1 l 20.4,20.39 h 71.7 v -20.39 m -146.33,0 h -26.58 l 20.4,20.39 h 26.57 l -20.39,-20.39 m -46.76,0 h -63.27 v 20.39 h 83.69 l -20.42,-20.39"
         style="fill:#4e98c5;fill-opacity:1;fill-rule:nonzero;stroke:none"
         transform="matrix(0.13333333,0,0,-0.13333333,0,1066.6667)" />
      <path
         id="path132"
         d="m 5074.27,3438.94 h -20.18 l 20.42,20.39 h 20.16 l -20.4,-20.39"
         style="fill:#69a7c5;fill-opacity:1;fill-rule:nonzero;stroke:none"
         transform="matrix(0.13333333,0,0,-0.13333333,0,1066.6667)" />
      <path
         id="path133"
         d="m 5155.08,3438.94 h -54.23 l 20.39,20.39 h 54.24 l -20.4,-20.39"
         style="fill:#69a7c5;fill-opacity:1;fill-rule:nonzero;stroke:none"
         transform="matrix(0.13333333,0,0,-0.13333333,0,1066.6667)" />
      <path
         id="path134"
         d="m 5280.95,3302.96 h -323.91 c -1.67,2.75 -2.63,5.98 -2.63,9.43 v 19.86 c 0,-10.06 8.15,-18.2 18.21,-18.2 h 292.76 c 10.05,0 18.2,8.14 18.2,18.2 v -19.86 c 0,-3.45 -0.96,-6.68 -2.63,-9.43"
         style="fill:#c1b24d;fill-opacity:1;fill-rule:nonzero;stroke:none"
         transform="matrix(0.13333333,0,0,-0.13333333,0,1066.6667)" />
      <path
         id="path135"
         d="m 5265.38,3294.19 h -292.76 c -6.61,0 -12.39,3.51 -15.58,8.77 h 323.91 c -3.19,-5.26 -8.97,-8.77 -15.57,-8.77"
         style="fill:#c1a52b;fill-opacity:1;fill-rule:nonzero;stroke:none"
         transform="matrix(0.13333333,0,0,-0.13333333,0,1066.6667)" />
      <path
         id="path136"
         d="m 4980.98,3474.33 c 0,-4.61 -3.73,-8.34 -8.34,-8.34 -4.61,0 -8.34,3.73 -8.34,8.34 0,4.61 3.73,8.34 8.34,8.34 4.61,0 8.34,-3.73 8.34,-8.34"
         style="fill:#bcbbb9;fill-opacity:1;fill-rule:nonzero;stroke:none"
         transform="matrix(0.13333333,0,0,-0.13333333,0,1066.6667)" />
      <path
         id="path137"
         d="m 4971.13,3476.02 c -1.93,-1.93 -4.11,-2.87 -4.86,-2.11 -0.76,0.75 0.18,2.93 2.11,4.86 1.93,1.93 4.11,2.88 4.87,2.12 0.76,-0.76 -0.19,-2.94 -2.12,-4.87"
         style="fill:#e3e2e0;fill-opacity:1;fill-rule:nonzero;stroke:none"
         transform="matrix(0.13333333,0,0,-0.13333333,0,1066.6667)" />
      <path
         id="path138"
         d="m 5273.7,3474.33 c 0,-4.61 -3.74,-8.34 -8.35,-8.34 -4.6,0 -8.34,3.73 -8.34,8.34 0,4.61 3.74,8.34 8.34,8.34 4.61,0 8.35,-3.73 8.35,-8.34"
         style="fill:#bcbbb9;fill-opacity:1;fill-rule:nonzero;stroke:none"
         transform="matrix(0.13333333,0,0,-0.13333333,0,1066.6667)" />
      <path
         id="path139"
         d="m 5263.85,3476.02 c -1.93,-1.93 -4.11,-2.87 -4.87,-2.11 -0.76,0.75 0.19,2.93 2.12,4.86 1.93,1.93 4.11,2.88 4.86,2.12 0.76,-0.76 -0.18,-2.94 -2.11,-4.87"
         style="fill:#e3e2e0;fill-opacity:1;fill-rule:nonzero;stroke:none"
         transform="matrix(0.13333333,0,0,-0.13333333,0,1066.6667)" />
      <path
         id="path140"
         d="m 4980.98,3335.46 c 0,-4.61 -3.73,-8.35 -8.34,-8.35 -4.61,0 -8.34,3.74 -8.34,8.35 0,4.6 3.73,8.34 8.34,8.34 4.61,0 8.34,-3.74 8.34,-8.34"
         style="fill:#bcbbb9;fill-opacity:1;fill-rule:nonzero;stroke:none"
         transform="matrix(0.13333333,0,0,-0.13333333,0,1066.6667)" />
      <path
         id="path141"
         d="m 4971.13,3337.15 c -1.93,-1.93 -4.11,-2.88 -4.86,-2.12 -0.76,0.76 0.18,2.94 2.11,4.87 1.93,1.93 4.11,2.87 4.87,2.12 0.76,-0.76 -0.19,-2.94 -2.12,-4.87"
         style="fill:#e3e2e0;fill-opacity:1;fill-rule:nonzero;stroke:none"
         transform="matrix(0.13333333,0,0,-0.13333333,0,1066.6667)" />
      <path
         id="path142"
         d="m 5273.7,3335.46 c 0,-4.61 -3.74,-8.35 -8.35,-8.35 -4.6,0 -8.34,3.74 -8.34,8.35 0,4.6 3.74,8.34 8.34,8.34 4.61,0 8.35,-3.74 8.35,-8.34"
         style="fill:#bcbbb9;fill-opacity:1;fill-rule:nonzero;stroke:none"
         transform="matrix(0.13333333,0,0,-0.13333333,0,1066.6667)" />
      <path
         id="path143"
         d="m 5263.85,3337.15 c -1.93,-1.93 -4.11,-2.88 -4.87,-2.12 -0.76,0.76 0.19,2.94 2.12,4.87 1.93,1.93 4.11,2.87 4.86,2.12 0.76,-0.76 -0.18,-2.94 -2.11,-4.87"
         style="fill:#e3e2e0;fill-opacity:1;fill-rule:nonzero;stroke:none"
         transform="matrix(0.13333333,0,0,-0.13333333,0,1066.6667)" />
      <path
         id="path144"
         d="M 3251.45,3591.9 H 2482.8 v -507.03 h 768.65 v 507.03"
         style="fill:#6ec8f1;fill-opacity:1;fill-rule:nonzero;stroke:none"
         transform="matrix(0.13333333,0,0,-0.13333333,0,1066.6667)" />
      <path
         id="path145"
         d="m 3053.18,3555.51 c 0,0 16.17,-106.38 72.8,-140.31 0,0 -38.43,-148.5 -44.49,-293.93 h 133.56 v 434.24 h -161.87"
         style="fill:#4b98d9;fill-opacity:1;fill-rule:nonzero;stroke:none"
         transform="matrix(0.13333333,0,0,-0.13333333,0,1066.6667)" />
      <path
         id="path146"
         d="m 2681.07,3555.51 c 0,0 -16.17,-106.38 -72.8,-140.31 0,0 38.42,-148.5 44.49,-293.93 H 2519.2 v 434.24 h 161.87"
         style="fill:#4b98d9;fill-opacity:1;fill-rule:nonzero;stroke:none"
         transform="matrix(0.13333333,0,0,-0.13333333,0,1066.6667)" />
      <path
         id="path147"
         d="m 2836.07,3591.86 -353.33,-353.32 v 64.06 L 2772,3591.86 h 64.07"
         style="fill:#90daf7;fill-opacity:1;fill-rule:nonzero;stroke:none"
         transform="matrix(0.13333333,0,0,-0.13333333,0,1066.6667)" />
      <path
         id="path148"
         d="m 3251.4,3539.08 v -32.03 l -422.13,-422.12 h -32.03 l 454.16,454.15"
         style="fill:#90daf7;fill-opacity:1;fill-rule:nonzero;stroke:none"
         transform="matrix(0.13333333,0,0,-0.13333333,0,1066.6667)" />
      <path
         id="path149"
         d="m 3006.91,3591.86 -506.94,-506.93 h -17.23 v 110.9 l 396.04,396.03 h 128.13"
         style="fill:#90daf7;fill-opacity:1;fill-rule:nonzero;stroke:none"
         transform="matrix(0.13333333,0,0,-0.13333333,0,1066.6667)" />
      <path
         id="path150"
         d="m 2519.2,3121.27 h 695.85 v 434.24 H 2519.2 Z m 732.25,-72.8 H 2482.8 c -20.1,0 -36.4,16.3 -36.4,36.4 v 507.03 c 0,20.11 16.3,36.41 36.4,36.41 h 768.65 c 20.1,0 36.4,-16.3 36.4,-36.41 v -507.03 c 0,-20.1 -16.3,-36.4 -36.4,-36.4"
         style="fill:#fcfcfd;fill-opacity:1;fill-rule:nonzero;stroke:none"
         transform="matrix(0.13333333,0,0,-0.13333333,0,1066.6667)" />
      <path
         id="path151"
         d="m 2352.85,2501.31 c 0,-28.99 -23.5,-52.49 -52.5,-52.49 -28.99,0 -52.49,23.5 -52.49,52.49 0,29 23.5,52.5 52.49,52.5 29,0 52.5,-23.5 52.5,-52.5"
         style="fill:#e72931;fill-opacity:1;fill-rule:nonzero;stroke:none"
         transform="matrix(0.13333333,0,0,-0.13333333,0,1066.6667)" />
      <path
         id="path152"
         d="m 2344.72,2501.31 c 0,-24.5 -19.86,-44.36 -44.37,-44.36 -24.5,0 -44.36,19.86 -44.36,44.36 0,24.5 19.86,44.36 44.36,44.36 24.51,0 44.37,-19.86 44.37,-44.36"
         style="fill:#e6596b;fill-opacity:1;fill-rule:nonzero;stroke:none"
         transform="matrix(0.13333333,0,0,-0.13333333,0,1066.6667)" />
      <path
         id="path153"
         d="m 2154.59,3288.28 h -42.77 c -25.13,0 -45.5,-20.37 -45.5,-45.5 v -385.23 c 0,-25.13 20.37,-45.5 45.5,-45.5 h 42.77 c 25.13,0 45.5,20.37 45.5,45.5 v 385.23 c 0,25.13 -20.37,45.5 -45.5,45.5"
         style="fill:#201e1d;fill-opacity:1;fill-rule:nonzero;stroke:none"
         transform="matrix(0.13333333,0,0,-0.13333333,0,1066.6667)" />
      <path
         id="path154"
         d="m 2066.32,3148.75 c -24.29,0 -43.98,-44.14 -43.98,-98.59 0,-54.44 19.69,-98.58 43.98,-98.58 v 197.17"
         style="fill:#f8f8f8;fill-opacity:1;fill-rule:nonzero;stroke:none"
         transform="matrix(0.13333333,0,0,-0.13333333,0,1066.6667)" />
      <path
         id="path155"
         d="m 2029.34,2996.93 c 7.83,-27.25 21.45,-45.35 36.98,-45.35 v 29.14 c -14.08,0 -26.97,6.1 -36.98,16.21"
         style="fill:#bcbbb9;fill-opacity:1;fill-rule:nonzero;stroke:none"
         transform="matrix(0.13333333,0,0,-0.13333333,0,1066.6667)" />
      <path
         id="path156"
         d="m 2247.86,2437.93 h 104.992 v 63.3789 H 2247.86 Z"
         style="fill:#328377;fill-opacity:1;fill-rule:nonzero;stroke:none"
         transform="matrix(0.13333333,0,0,-0.13333333,0,1066.6667)"
         clip-path="url(#clipPath157)" />
      <path
         id="path158"
         d="m 2300.35,2448.82 c -26.15,0 -47.84,19.14 -51.83,44.17 3.99,-25.03 25.68,-44.17 51.84,-44.17 -0.01,0 -0.01,0 -0.01,0"
         style="fill:#b32427;fill-opacity:1;fill-rule:nonzero;stroke:none"
         transform="matrix(0.13333333,0,0,-0.13333333,0,1066.6667)" />
      <path
         id="path159"
         d="m 5235.17,2872.1 c 11.93,-4.58 11.93,-21.49 0,-26.07 -28.19,-10.83 -66.18,-24.47 -78.67,-24.47 -20.71,0 -37.5,16.79 -37.5,37.5 0,20.72 16.79,37.51 37.5,37.51 12.49,0 50.48,-13.64 78.67,-24.47"
         style="fill:#f9d506;fill-opacity:1;fill-rule:nonzero;stroke:none"
         transform="matrix(0.13333333,0,0,-0.13333333,0,1066.6667)" />
      <path
         id="path160"
         d="m 5156.5,2812.46 c -17.02,0 -31.4,11.35 -35.98,26.89 h 4.07 c 6.22,-10.04 17.03,-16.92 29.5,-17.71 0.01,0 0.01,0 0.02,0 0.23,-0.02 0.47,-0.03 0.7,-0.04 0.03,0 0.05,0 0.07,-0.01 0.06,0 0.12,0 0.17,0 0.01,0 0.02,0 0.03,0 0.07,-0.01 0.14,-0.01 0.21,-0.01 0.02,0 0.05,0 0.07,0 0.06,0 0.12,-0.01 0.17,-0.01 0.03,0 0.05,0 0.07,0 0.06,0 0.12,0 0.17,0 0.08,0 0.15,-0.01 0.22,-0.01 0.01,0 0.02,0 0.03,0 0.04,0 0.08,0 0.13,0 0.11,0 0.23,0 0.35,0 v 0 c 10,0 36.35,8.74 60.92,17.79 h 21.87 c -1.16,-0.99 -2.54,-1.81 -4.12,-2.42 -28.19,-10.83 -66.18,-24.47 -78.67,-24.47"
         style="fill:#fbcd44;fill-opacity:1;fill-rule:nonzero;stroke:none"
         transform="matrix(0.13333333,0,0,-0.13333333,0,1066.6667)" />
      <path
         id="path161"
         d="m 5239.29,2839.35 h -21.87 c 6.12,2.25 12.13,4.52 17.75,6.68 0.09,0.03 0.18,0.07 0.27,0.11 0.01,0 0.01,0 0.01,0 0.18,0.07 0.36,0.15 0.54,0.23 0,0 0,0 0.01,0 0.04,0.02 0.08,0.04 0.12,0.06 0.01,0 0.02,0.01 0.03,0.01 0.03,0.02 0.07,0.04 0.1,0.05 0.02,0.01 0.04,0.02 0.06,0.03 0.02,0.01 0.05,0.02 0.07,0.03 0.03,0.02 0.05,0.03 0.08,0.05 0.02,0 0.03,0.01 0.05,0.02 0.03,0.01 0.06,0.03 0.1,0.05 0.01,0 0.01,0.01 0.02,0.01 0.04,0.02 0.08,0.04 0.12,0.06 0.01,0.01 0.01,0.01 0.01,0.01 4.75,2.49 7.2,7.14 7.35,11.85 v -0.11 -0.13 -0.13 -0.13 -0.12 -0.13 -0.13 -0.13 -0.13 -0.13 -0.12 -0.13 -0.13 -0.13 -0.13 -0.12 -0.13 -0.13 -0.13 -0.13 -0.13 -0.12 -0.13 -0.13 -0.13 -0.13 -0.12 -0.13 -0.13 -0.13 -0.13 -0.13 -0.12 -0.13 -0.13 -0.13 -0.13 -0.12 -0.13 -0.13 -0.13 -0.13 -0.13 -0.12 -0.13 -0.13 -0.13 -0.13 -0.12 -0.13 -0.13 -0.13 -0.13 -0.13 -0.12 -0.13 -0.13 -0.13 -0.13 -0.12 -0.13 -0.13 -0.13 -0.13 -0.12 -0.13 -0.13 c 0,-0.04 0,-0.09 0,-0.13 -0.02,-3.92 -1.62,-7.84 -4.82,-10.55 m -114.7,0 h -4.07 c -0.99,3.36 -1.52,6.93 -1.52,10.61 v 0 0.07 0.06 0.07 0.06 0.07 0.06 0.06 0.07 0.06 0.07 0.06 0.06 0.07 0.06 0.07 0.06 0.06 0.07 0.06 0.07 0.06 0.06 0.07 0.06 0.07 0.06 0.06 0.07 0.06 0.07 0.06 0.07 0.06 0.06 0.07 0.06 0.07 0.06 0.06 0.07 0.06 0.07 0.06 0.06 0.07 0.06 0.07 0.06 0.06 0.07 0.06 0.07 0.06 0.07 0.06 0.06 0.07 0.06 0.07 0.06 0.06 0.07 0.06 0.07 0.06 0.06 0.07 0.06 0.07 0.06 0.06 0.07 0.06 0.07 0.06 0.07 0.06 0.06 0.07 0.06 0.07 0.06 0.06 0.07 0.06 0.07 0.06 0.06 0.07 0.06 0.07 0.06 0.06 0.07 0.06 0.07 0.06 0.07 0.06 0.06 0.07 0.06 0.07 0.06 0.06 0.07 0.06 0.07 0.06 0.06 0.07 0.06 0.07 0.06 0.06 0.07 0.06 0.07 0.06 0.06 0.07 0.06 0.07 0.06 0.07 0.06 0.06 0.07 0.06 0.07 0.06 0.06 0.05 c 0.11,-7.01 2.14,-13.55 5.59,-19.12 m -5.59,19.16 v 0.04 0.03 c 0,-0.02 0,-0.05 0,-0.07 m 0,0.15 v 0.02 0.02 c 0,-0.01 0,-0.03 0,-0.04 m 0,0.14 v 0.01 0.01 c 0,-0.01 0,-0.02 0,-0.02 m 0,0.13 v 0 0.01 -0.01"
         style="fill:#fabb25;fill-opacity:1;fill-rule:nonzero;stroke:none"
         transform="matrix(0.13333333,0,0,-0.13333333,0,1066.6667)" />
      <path
         id="path162"
         d="m 5156.5,2821.56 c -0.12,0 -0.24,0 -0.35,0 0.11,0 0.23,0 0.35,0 m -0.48,0 c -0.01,0 -0.02,0 -0.03,0 0.01,0 0.02,0 0.03,0 m -0.25,0.01 c -0.05,0 -0.11,0 -0.17,0 0.06,0 0.12,0 0.17,0 m -0.24,0 c -0.05,0 -0.11,0.01 -0.17,0.01 0.06,0 0.11,-0.01 0.17,-0.01 m -0.24,0.01 c -0.07,0 -0.14,0 -0.21,0.01 0.07,-0.01 0.14,-0.01 0.21,-0.01 m -0.24,0.01 c -0.05,0 -0.11,0 -0.17,0 0.06,0 0.12,0 0.17,0 m -0.24,0.01 c -0.23,0.01 -0.47,0.02 -0.7,0.04 0.23,-0.02 0.47,-0.03 0.7,-0.04 m -0.72,0.04 c -12.47,0.79 -23.28,7.67 -29.5,17.71 -3.45,5.57 -5.48,12.11 -5.59,19.12 v 0.02 0.02 c 0,0.02 0,0.05 0,0.07 v 0.04 0.04 c 0,0.01 0,0.03 0,0.04 v 0.04 0.06 c 0,0 0,0.01 0,0.02 v 0.05 0.06 0.01 0.06 c 0.04,-19.88 15.53,-36.12 35.09,-37.36 m 81.35,24.5 c 0.01,0 0.01,0 0.01,0 0,0 0,0 -0.01,0 m 0.55,0.23 c 0,0 0,0 0.01,0 -0.01,0 -0.01,0 -0.01,0 m 0.13,0.06 c 0.01,0 0.02,0.01 0.03,0.01 -0.01,0 -0.02,-0.01 -0.03,-0.01 m 0.13,0.06 c 0.02,0.01 0.04,0.02 0.06,0.03 -0.02,-0.01 -0.04,-0.02 -0.06,-0.03 m 0.13,0.06 c 0.03,0.02 0.05,0.03 0.08,0.05 -0.03,-0.02 -0.05,-0.03 -0.08,-0.05 m 0.13,0.07 c 0.03,0.01 0.06,0.03 0.1,0.05 -0.04,-0.02 -0.07,-0.04 -0.1,-0.05 m 0.12,0.06 c 0.04,0.02 0.08,0.04 0.12,0.06 -0.04,-0.02 -0.08,-0.04 -0.12,-0.06 m 0.13,0.07 c 4.88,2.56 7.33,7.4 7.35,12.25 v 0 -0.13 -0.13 -0.12 -0.02 c -0.15,-4.71 -2.6,-9.36 -7.35,-11.85"
         style="fill:#fabd09;fill-opacity:1;fill-rule:nonzero;stroke:none"
         transform="matrix(0.13333333,0,0,-0.13333333,0,1066.6667)" />
      <path
         id="path163"
         d="m 5156.5,2896.57 c -20.71,0 -37.5,-16.79 -37.5,-37.51 0,-20.71 16.79,-37.5 37.5,-37.5 12.49,0 50.48,13.64 78.67,24.47 11.93,4.58 11.93,21.49 0,26.07 -28.19,10.83 -66.18,24.47 -78.67,24.47 z m 0,-6.07 c 8.8,0 36.68,-8.77 76.49,-24.06 4.69,-1.81 5.06,-6.1 5.06,-7.38 0,-1.27 -0.37,-5.57 -5.06,-7.37 -39.81,-15.29 -67.69,-24.06 -76.49,-24.06 -17.33,0 -31.44,14.1 -31.44,31.43 0,17.34 14.11,31.44 31.44,31.44"
         style="fill:#f8f8f8;fill-opacity:1;fill-rule:nonzero;stroke:none"
         transform="matrix(0.13333333,0,0,-0.13333333,0,1066.6667)" />
      <path
         id="path164"
         d="m 5036.25,4019.32 c -120.78,73.05 -262.38,115.12 -413.82,115.12 H 3000.89 c -151.44,0 -293.04,-42.07 -413.82,-115.12 h 2449.18"
         style="fill:#57bca8;fill-opacity:1;fill-rule:nonzero;stroke:none"
         transform="matrix(0.13333333,0,0,-0.13333333,0,1066.6667)" />
      <path
         id="path165"
         d="m 5423.23,2517.81 h 554.43 v 36.4023 h -554.43 z"
         style="fill:#f1f1f1;fill-opacity:1;fill-rule:nonzero;stroke:none"
         transform="matrix(0.13333333,0,0,-0.13333333,0,1066.6667)" />
      <path
         id="path166"
         d="m 5423.23,2510.99 h 530.16 v 6.8164 h -530.16 z"
         style="fill:#909090;fill-opacity:1;fill-rule:nonzero;stroke:none"
         transform="matrix(0.13333333,0,0,-0.13333333,0,1066.6667)" />
      <path
         id="path167"
         d="M 3977.34,2463.15 H 3379.4 v 170.94 h 597.94 v -170.94"
         style="fill:#2e8b7a;fill-opacity:1;fill-rule:nonzero;stroke:none"
         transform="matrix(0.13333333,0,0,-0.13333333,0,1066.6667)" />
      <path
         id="path168"
         d="m 5555.72,2440.46 v 0 l 157.24,43.98 v 0 l -157.24,-43.98 m 233.1,26.28 57.49,16.08 v 0 l -57.49,-16.08"
         style="fill:#17372f;fill-opacity:1;fill-rule:nonzero;stroke:none"
         transform="matrix(0.13333333,0,0,-0.13333333,0,1066.6667)" />
      <path
         id="path169"
         d="m 5894.24,2440.46 h -47.93 v 42.36 l 5.81,1.62 h 42.12 v -43.98"
         style="fill:#454547;fill-opacity:1;fill-rule:nonzero;stroke:none"
         transform="matrix(0.13333333,0,0,-0.13333333,0,1066.6667)" />
      <path
         id="path170"
         d="m 5694.87,2440.46 h -139.15 l 157.24,43.98 h 139.16 l -5.81,-1.62 -57.49,-16.08 -93.95,-26.28"
         style="fill:#535456;fill-opacity:1;fill-rule:nonzero;stroke:none"
         transform="matrix(0.13333333,0,0,-0.13333333,0,1066.6667)" />
      <path
         id="path171"
         d="m 5894.24,2484.44 v 0 h -181.28 v 0 l 4.7,1.32 h 176.58 v -1.32"
         style="fill:#909090;fill-opacity:1;fill-rule:nonzero;stroke:none"
         transform="matrix(0.13333333,0,0,-0.13333333,0,1066.6667)" />
      <path
         id="path172"
         d="m 5868.93,2769.16 c 3.97,-3.98 -1.14,-15.55 -11.43,-25.84 -10.29,-10.29 -21.86,-15.4 -25.84,-11.42 -3.98,3.98 1.14,15.55 11.43,25.83 10.29,10.3 21.86,15.41 25.84,11.43"
         style="fill:#fcfcfd;fill-opacity:1;fill-rule:nonzero;stroke:none"
         transform="matrix(0.13333333,0,0,-0.13333333,0,1066.6667)" />
    </g>
  </g>
</svg>
